<svg xmlns="http://www.w3.org/2000/svg" width="677.421" height="420.812" viewBox="0 0 677.421 420.812">
  <g id="Group_248" data-name="Group 248" transform="translate(-33.369 -35.868)">
    <g id="Background_Complete" data-name="Background Complete">
      <g id="Group_4" data-name="Group 4">
        <path id="Path_1" data-name="Path 1" d="M466.989,443.86a16.657,16.657,0,0,1,24.718,12.82c-10.1.01-20.048-2.348-24.718-12.82" fill="#ebebeb"/>
        <g id="Group_2" data-name="Group 2">
          <path id="Path_2" data-name="Path 2" d="M478.758,433.514a21.555,21.555,0,0,0,28.177-22.461c-12.824,2.513-24.867,8-28.177,22.461" fill="#ebebeb"/>
          <g id="Group_1" data-name="Group 1">
            <path id="Path_3" data-name="Path 3" d="M434.793,450.6a3.228,3.228,0,0,1,.632-.251l1.842-.623c1.606-.521,3.927-1.278,6.776-2.27,5.7-1.966,13.535-4.834,21.972-8.51,4.214-1.851,8.175-3.73,11.732-5.531,3.541-1.83,6.678-3.577,9.248-5.15a61.512,61.512,0,0,0,5.875-4.036c1.325-1.037,1.971-1.715,2.015-1.671a3.266,3.266,0,0,1-.458.5A15.606,15.606,0,0,1,493,424.388a53,53,0,0,1-5.808,4.191c-2.556,1.619-5.685,3.406-9.224,5.265-3.555,1.828-7.52,3.726-11.743,5.581-8.456,3.684-16.323,6.5-22.063,8.382-2.868.948-5.209,1.653-6.834,2.114l-1.872.53A3.315,3.315,0,0,1,434.793,450.6Z" fill="#e0e0e0"/>
          </g>
        </g>
        <g id="Group_3" data-name="Group 3">
          <path id="Path_4" data-name="Path 4" d="M479.963,449.741c-.051.074-1.223-.738-3.237-1.828a38.873,38.873,0,0,0-17.082-4.677c-2.288-.088-3.71.015-3.717-.075a3.714,3.714,0,0,1,.992-.163,24.153,24.153,0,0,1,2.733-.13,34.347,34.347,0,0,1,17.255,4.724,24.4,24.4,0,0,1,2.286,1.5A3.705,3.705,0,0,1,479.963,449.741Z" fill="#e0e0e0"/>
        </g>
      </g>
      <g id="Group_6" data-name="Group 6">
        <path id="Path_5" data-name="Path 5" d="M241.728,404.776a21,21,0,0,0,20.705,28.358c-1.918-12.589-6.759-24.539-20.705-28.358" fill="#ebebeb"/>
        <g id="Group_5" data-name="Group 5">
          <path id="Path_6" data-name="Path 6" d="M239.756,398.6c.084-.02.427,1.375,1.154,3.569a51.865,51.865,0,0,0,8.482,15.823c1.426,1.819,2.4,2.877,2.335,2.936a3.779,3.779,0,0,1-.758-.672c-.469-.452-1.108-1.145-1.862-2.032a43.907,43.907,0,0,1-8.549-15.945c-.321-1.119-.544-2.036-.662-2.676A3.828,3.828,0,0,1,239.756,398.6Z" fill="#e0e0e0"/>
        </g>
      </g>
      <g id="Group_8" data-name="Group 8">
        <path id="Path_7" data-name="Path 7" d="M41.887,152.443a32.535,32.535,0,0,0,32.074,43.929c-2.972-19.5-10.471-38.013-32.074-43.929" fill="#ebebeb"/>
        <g id="Group_7" data-name="Group 7">
          <path id="Path_8" data-name="Path 8" d="M38.832,142.875a9.05,9.05,0,0,1,.468,1.492c.258.97.671,2.363,1.223,4.068a77.715,77.715,0,0,0,13.158,24.544c1.114,1.4,2.046,2.518,2.711,3.27a9.162,9.162,0,0,1,.984,1.215,8.892,8.892,0,0,1-1.134-1.078c-.712-.712-1.69-1.794-2.847-3.175a69.834,69.834,0,0,1-13.224-24.666c-.509-1.728-.869-3.141-1.068-4.129A8.963,8.963,0,0,1,38.832,142.875Z" fill="#e0e0e0"/>
        </g>
      </g>
      <g id="Group_10" data-name="Group 10">
        <path id="Path_9" data-name="Path 9" d="M75.675,351.484a21,21,0,0,0,3.391,34.949c4.755-11.813,6.67-24.564-3.391-34.949" fill="#ebebeb"/>
        <g id="Group_9" data-name="Group 9">
          <path id="Path_10" data-name="Path 10" d="M77.121,345.164c.082.026-.333,1.4-.824,3.66a51.863,51.863,0,0,0-.75,17.937c.3,2.292.6,3.7.515,3.716a3.789,3.789,0,0,1-.311-.964c-.173-.628-.371-1.55-.568-2.7a43.86,43.86,0,0,1,.756-18.075c.293-1.127.567-2.03.792-2.641A3.814,3.814,0,0,1,77.121,345.164Z" fill="#e0e0e0"/>
        </g>
      </g>
      <g id="Group_12" data-name="Group 12">
        <path id="Path_11" data-name="Path 11" d="M261.26,98.624a21,21,0,0,0,30.333-17.687c-12.72.617-25.1,4.206-30.333,17.687" fill="#ebebeb"/>
        <g id="Group_11" data-name="Group 11">
          <path id="Path_12" data-name="Path 12" d="M254.914,99.952c-.01-.086,1.412-.284,3.67-.781a51.839,51.839,0,0,0,16.608-6.815c1.957-1.232,3.108-2.089,3.161-2.021a3.816,3.816,0,0,1-.746.685c-.5.419-1.253.984-2.213,1.644a43.873,43.873,0,0,1-16.738,6.867c-1.146.205-2.08.333-2.729.385A3.788,3.788,0,0,1,254.914,99.952Z" fill="#e0e0e0"/>
        </g>
      </g>
      <g id="Group_14" data-name="Group 14">
        <path id="Path_13" data-name="Path 13" d="M235.338,96.805a27.693,27.693,0,0,0,16.723-43.169c-12.6,11.094-22.416,24.975-16.723,43.169" fill="#ebebeb"/>
        <g id="Group_13" data-name="Group 13">
          <path id="Path_14" data-name="Path 14" d="M229.889,103.392a6.462,6.462,0,0,1,.843-1.032c.572-.634,1.377-1.572,2.342-2.753a66.841,66.841,0,0,0,11.526-20.7c.5-1.442.87-2.62,1.108-3.44a6.521,6.521,0,0,1,.433-1.26,6.506,6.506,0,0,1-.237,1.312c-.178.839-.5,2.038-.954,3.5a58.943,58.943,0,0,1-11.594,20.821c-1.007,1.157-1.857,2.062-2.477,2.655A6.576,6.576,0,0,1,229.889,103.392Z" fill="#e0e0e0"/>
        </g>
      </g>
      <g id="Group_16" data-name="Group 16">
        <path id="Path_15" data-name="Path 15" d="M317.372,439.372a12.647,12.647,0,0,0,21.009,2.365c-6.364-4.276-13.636-7-21.009-2.365" fill="#ebebeb"/>
        <g id="Group_15" data-name="Group 15">
          <path id="Path_16" data-name="Path 16" d="M313.83,437.731a58.567,58.567,0,0,0,7.2,2.639,59.019,59.019,0,0,0,7.581,1.145,7.583,7.583,0,0,1-2.271.133,25.2,25.2,0,0,1-10.58-2.708A7.549,7.549,0,0,1,313.83,437.731Z" fill="#e0e0e0"/>
        </g>
      </g>
      <g id="Group_18" data-name="Group 18">
        <path id="Path_17" data-name="Path 17" d="M410.07,80.332a12.646,12.646,0,0,0,21.07-1.743c-7.071-2.964-14.731-4.225-21.07,1.743" fill="#ebebeb"/>
        <g id="Group_17" data-name="Group 17">
          <path id="Path_18" data-name="Path 18" d="M406.278,79.408a58.916,58.916,0,0,0,7.571,1.2,58.859,58.859,0,0,0,7.659-.343,7.574,7.574,0,0,1-2.2.57,25.17,25.17,0,0,1-10.9-.611A7.591,7.591,0,0,1,406.278,79.408Z" fill="#e0e0e0"/>
        </g>
      </g>
      <g id="Group_20" data-name="Group 20">
        <path id="Path_19" data-name="Path 19" d="M650.3,111.093a20.995,20.995,0,0,0,26.374-23.157c-12.361,3.039-23.823,8.931-26.374,23.157" fill="#ebebeb"/>
        <g id="Group_19" data-name="Group 19">
          <path id="Path_20" data-name="Path 20" d="M644.333,113.61c-.026-.082,1.331-.548,3.451-1.469a51.762,51.762,0,0,0,14.99-9.864c1.684-1.582,2.649-2.644,2.714-2.587a3.82,3.82,0,0,1-.6.815c-.408.506-1.041,1.205-1.856,2.036a43.854,43.854,0,0,1-15.107,9.941c-1.085.42-1.977.724-2.6.9A3.763,3.763,0,0,1,644.333,113.61Z" fill="#e0e0e0"/>
        </g>
      </g>
      <g id="Group_22" data-name="Group 22">
        <path id="Path_21" data-name="Path 21" d="M673.966,415.879a36.534,36.534,0,0,0,21.18-57.285c-16.4,14.89-29.06,33.4-21.18,57.285" fill="#ebebeb"/>
        <g id="Group_21" data-name="Group 21">
          <path id="Path_22" data-name="Path 22" d="M666.912,424.678a11.467,11.467,0,0,1,1.115-1.356c.75-.841,1.8-2.091,3.055-3.664s2.684-3.5,4.179-5.7c1.474-2.214,3.009-4.706,4.469-7.406,1.444-2.71,2.673-5.366,3.7-7.819,1.008-2.462,1.831-4.714,2.442-6.633s1.079-3.481,1.366-4.571a11.329,11.329,0,0,1,.514-1.678,11.368,11.368,0,0,1-.317,1.727c-.228,1.107-.636,2.693-1.212,4.632s-1.36,4.219-2.348,6.705a79.216,79.216,0,0,1-8.221,15.313c-1.526,2.2-2.986,4.116-4.291,5.662s-2.393,2.768-3.19,3.569A11.236,11.236,0,0,1,666.912,424.678Z" fill="#e0e0e0"/>
        </g>
      </g>
    </g>
    <g id="Capa_8" data-name="Capa 8">
      <g id="Group_27" data-name="Group 27">
        <path id="Path_26" data-name="Path 26" d="M538.223,289.8c-6.316-35.247-36.583-66.028-72.274-68.935-19.445-1.584-39,4.549-58.372,2.209a67.973,67.973,0,0,1-42.485-22.4c-15.982-18.205-21.416-44.093-38.349-61.417C303.4,115.375,262.667,115,234.271,132.57S188.7,181.845,180.845,214.3l-.311,9.869c-1.71,33.663,7.143,72.788,26.676,102.795,19.786,30.395,32.8,42.946,68.858,64.806,30.622,18.562,90.583,26.721,126.381,27.584s72.575-9.81,99.5-33.421S544.539,325.047,538.223,289.8Z" fill="#37a2d0"/>
        <g id="Group_26" data-name="Group 26" opacity="0.8">
          <path id="Path_27" data-name="Path 27" d="M538.223,289.8c-6.316-35.247-36.583-66.028-72.274-68.935-19.445-1.584-39,4.549-58.372,2.209a67.973,67.973,0,0,1-42.485-22.4c-15.982-18.205-21.416-44.093-38.349-61.417C303.4,115.375,262.667,115,234.271,132.57S188.7,181.845,180.845,214.3l-.311,9.869c-1.71,33.663,7.143,72.788,26.676,102.795,19.786,30.395,32.8,42.946,68.858,64.806,30.622,18.562,90.583,26.721,126.381,27.584s72.575-9.81,99.5-33.421S544.539,325.047,538.223,289.8Z" fill="#fff"/>
        </g>
      </g>
      <g id="Group_28" data-name="Group 28">
        <circle id="Ellipse_3" data-name="Ellipse 3" cx="17.254" cy="17.254" r="17.254" transform="translate(536.667 427.753) rotate(-81.743)" fill="#37a2d0"/>
        <circle id="Ellipse_4" data-name="Ellipse 4" cx="17.254" cy="17.254" r="17.254" transform="translate(536.667 427.753) rotate(-81.743)" fill="#fff" opacity="0.8"/>
      </g>
    </g>
    <g id="_404" data-name="404">
      <g id="Group_59" data-name="Group 59">
        <g id="Group_29" data-name="Group 29">
          <path id="Path_28" data-name="Path 28" d="M435.164,280.453q.495,51.649-22.522,78.967t-63.025,27.7q-40.194.387-63.911-26.485T261.491,282.12l-.582-60.558Q260.415,170.1,283.43,142.6t63.206-27.888q40.007-.386,63.731,26.669t24.215,78.518Zm-44.838-66.92q-.312-32.521-11.374-48.044t-31.975-15.32q-20.914.2-31.584,15.93t-10.358,48.253l.707,73.584q.313,32.709,11.468,48.316t32.066,15.41q20.91-.2,31.493-15.929t10.263-48.616Z" fill="#37a2d0"/>
        </g>
        <g id="Group_30" data-name="Group 30" opacity="0.4">
          <path id="Path_29" data-name="Path 29" d="M435.164,280.453q.495,51.649-22.522,78.967t-63.025,27.7q-40.194.387-63.911-26.485T261.491,282.12l-.582-60.558Q260.415,170.1,283.43,142.6t63.206-27.888q40.007-.386,63.731,26.669t24.215,78.518Zm-44.838-66.92q-.312-32.521-11.374-48.044t-31.975-15.32q-20.914.2-31.584,15.93t-10.358,48.253l.707,73.584q.313,32.709,11.468,48.316t32.066,15.41q20.91-.2,31.493-15.929t10.263-48.616Z"/>
        </g>
        <g id="Group_31" data-name="Group 31">
          <path id="Path_30" data-name="Path 30" d="M460.623,280.208q.5,51.649-22.521,78.967T375.076,386.88q-40.194.385-63.91-26.486T286.95,281.876l-.582-60.558q-.494-51.463,22.522-78.968T372.1,114.462q40-.384,63.73,26.669t24.215,78.519Zm-44.838-66.92q-.312-32.52-11.374-48.044t-31.975-15.32q-20.914.2-31.583,15.931t-10.359,48.253l.707,73.584q.314,32.708,11.468,48.316t32.066,15.41q20.912-.2,31.493-15.93t10.264-48.616Z" fill="#37a2d0"/>
        </g>
        <g id="Group_32" data-name="Group 32">
          <path id="Path_31" data-name="Path 31" d="M286.55,224.917c.051.134-5.862,2.481-13.2,5.24s-13.339,4.887-13.389,4.753,5.86-2.481,13.2-5.241S286.5,224.782,286.55,224.917Z" fill="#37a2d0"/>
        </g>
        <g id="Group_33" data-name="Group 33">
          <path id="Path_32" data-name="Path 32" d="M288.019,248.846c.051.135-5.862,2.481-13.2,5.241s-13.339,4.887-13.389,4.753,5.861-2.481,13.206-5.241S287.969,248.712,288.019,248.846Z" fill="#37a2d0"/>
        </g>
        <g id="Group_34" data-name="Group 34">
          <path id="Path_33" data-name="Path 33" d="M289.489,272.776c.05.135-5.862,2.481-13.205,5.24s-13.338,4.888-13.389,4.754,5.861-2.481,13.206-5.241S289.438,272.642,289.489,272.776Z" fill="#37a2d0"/>
        </g>
        <g id="Group_35" data-name="Group 35">
          <path id="Path_34" data-name="Path 34" d="M290.958,296.706c.051.135-5.862,2.481-13.205,5.24s-13.338,4.888-13.389,4.753,5.861-2.48,13.206-5.24S290.907,296.572,290.958,296.706Z" fill="#37a2d0"/>
        </g>
        <g id="Group_36" data-name="Group 36">
          <path id="Path_35" data-name="Path 35" d="M292.427,320.636a3.835,3.835,0,0,1-.915.452c-.6.26-1.478.619-2.565,1.052-2.174.868-5.189,2.032-8.531,3.288s-6.379,2.366-8.586,3.145c-1.1.389-2,.7-2.623.9a3.822,3.822,0,0,1-.987.262,3.91,3.91,0,0,1,.916-.452c.6-.259,1.478-.618,2.564-1.052,2.174-.867,5.19-2.032,8.533-3.288s6.378-2.365,8.584-3.144c1.1-.39,2-.7,2.623-.9A3.879,3.879,0,0,1,292.427,320.636Z" fill="#37a2d0"/>
        </g>
        <g id="Group_37" data-name="Group 37">
          <path id="Path_36" data-name="Path 36" d="M299.263,342.526a20.648,20.648,0,0,1-3.027,1.334c-1.894.762-4.523,1.781-7.437,2.877s-5.565,2.06-7.492,2.733a20.811,20.811,0,0,1-3.157.99,20.783,20.783,0,0,1,3.027-1.334c1.894-.762,4.523-1.781,7.439-2.877s5.563-2.06,7.49-2.733A20.86,20.86,0,0,1,299.263,342.526Z" fill="#37a2d0"/>
        </g>
        <g id="Group_38" data-name="Group 38">
          <path id="Path_37" data-name="Path 37" d="M313.887,362.61a16.569,16.569,0,0,1-2.69,1.207c-1.685.684-4.025,1.594-6.621,2.57s-4.958,1.832-6.676,2.427a16.673,16.673,0,0,1-2.819.863,16.426,16.426,0,0,1,2.689-1.207c1.685-.684,4.026-1.6,6.623-2.571s4.957-1.831,6.675-2.426A16.5,16.5,0,0,1,313.887,362.61Z" fill="#37a2d0"/>
        </g>
        <g id="Group_39" data-name="Group 39">
          <path id="Path_38" data-name="Path 38" d="M338.2,375.775a16.416,16.416,0,0,1-2.689,1.208c-1.685.683-4.025,1.594-6.621,2.569s-4.958,1.832-6.677,2.428a16.575,16.575,0,0,1-2.818.862,16.473,16.473,0,0,1,2.689-1.207c1.685-.684,4.025-1.594,6.622-2.57s4.957-1.832,6.676-2.427A16.65,16.65,0,0,1,338.2,375.775Z" fill="#37a2d0"/>
        </g>
        <g id="Group_40" data-name="Group 40">
          <path id="Path_39" data-name="Path 39" d="M411.522,324.713c.059.131-7.531,3.671-16.952,7.906s-17.108,7.564-17.167,7.433,7.53-3.671,16.954-7.908S411.463,324.582,411.522,324.713Z" fill="#37a2d0"/>
        </g>
        <g id="Group_41" data-name="Group 41">
          <path id="Path_40" data-name="Path 40" d="M416.5,304.208c.059.131-6.208,3.076-13.995,6.577s-14.15,6.234-14.209,6.1,6.206-3.076,14-6.578S416.442,304.077,416.5,304.208Z" fill="#37a2d0"/>
        </g>
        <g id="Group_42" data-name="Group 42">
          <path id="Path_41" data-name="Path 41" d="M418.792,281.176c.059.131-6.207,3.076-13.994,6.577s-14.151,6.234-14.21,6.1,6.206-3.075,14-6.577S418.733,281.045,418.792,281.176Z" fill="#37a2d0"/>
        </g>
        <g id="Group_43" data-name="Group 43">
          <path id="Path_42" data-name="Path 42" d="M421.084,258.144c.059.131-6.208,3.076-14,6.577s-14.15,6.233-14.209,6.1,6.206-3.075,14-6.577S421.025,258.013,421.084,258.144Z" fill="#37a2d0"/>
        </g>
        <g id="Group_44" data-name="Group 44">
          <path id="Path_43" data-name="Path 43" d="M423.375,235.111c.059.132-6.207,3.077-13.994,6.578s-14.151,6.233-14.21,6.1,6.206-3.075,14-6.578S423.316,234.98,423.375,235.111Z" fill="#37a2d0"/>
        </g>
        <g id="Group_45" data-name="Group 45">
          <path id="Path_44" data-name="Path 44" d="M418.792,214.6c.059.131-6.207,3.077-13.994,6.577s-14.151,6.234-14.21,6.1,6.206-3.076,14-6.578S418.733,214.469,418.792,214.6Z" fill="#37a2d0"/>
        </g>
        <g id="Group_46" data-name="Group 46">
          <path id="Path_45" data-name="Path 45" d="M418.792,192.52c.059.131-6.207,3.076-13.994,6.577s-14.151,6.234-14.21,6.1,6.206-3.076,14-6.578S418.733,192.389,418.792,192.52Z" fill="#37a2d0"/>
        </g>
        <g id="Group_47" data-name="Group 47">
          <path id="Path_46" data-name="Path 46" d="M416.5,171.727c.059.131-6.208,3.076-13.995,6.577s-14.15,6.234-14.209,6.1,6.206-3.076,14-6.578S416.442,171.6,416.5,171.727Z" fill="#37a2d0"/>
        </g>
        <g id="Group_48" data-name="Group 48">
          <path id="Path_47" data-name="Path 47" d="M396.747,157.243a85.27,85.27,0,0,1-8.471,4.094,84.819,84.819,0,0,1-8.684,3.618,169.718,169.718,0,0,1,17.155-7.712Z" fill="#37a2d0"/>
        </g>
        <g id="Group_49" data-name="Group 49">
          <path id="Path_48" data-name="Path 48" d="M386.186,148.37a85.139,85.139,0,0,1-8.471,4.093,85.251,85.251,0,0,1-8.684,3.619,85.128,85.128,0,0,1,8.471-4.094A84.878,84.878,0,0,1,386.186,148.37Z" fill="#37a2d0"/>
        </g>
        <g id="Group_50" data-name="Group 50">
          <path id="Path_49" data-name="Path 49" d="M287.684,195.91c.05.135-5.862,2.481-13.2,5.24s-13.338,4.888-13.389,4.753,5.861-2.48,13.206-5.24S287.633,195.775,287.684,195.91Z" fill="#37a2d0"/>
        </g>
        <g id="Group_51" data-name="Group 51">
          <path id="Path_50" data-name="Path 50" d="M295.045,166.066c.05.135-6.361,2.669-14.318,5.659s-14.453,5.306-14.5,5.172,6.359-2.668,14.319-5.659S294.994,165.932,295.045,166.066Z" fill="#37a2d0"/>
        </g>
        <g id="Group_52" data-name="Group 52">
          <path id="Path_51" data-name="Path 51" d="M314.267,136.531c.05.134-8.079,3.314-18.156,7.1s-18.29,6.749-18.341,6.614,8.077-3.313,18.158-7.1S314.216,136.4,314.267,136.531Z" fill="#37a2d0"/>
        </g>
        <g id="Group_53" data-name="Group 53">
          <path id="Path_52" data-name="Path 52" d="M456.313,325.044a2.733,2.733,0,0,1-.419-.143l-1.2-.467c-.532-.2-1.223-.341-2.018-.568a19.481,19.481,0,0,0-2.835-.341c-4.269-.276-10.668,1.278-16.856,5.914a48.006,48.006,0,0,0-8.931,8.829c-2.871,3.513-5.676,7.481-8.867,11.487a52.576,52.576,0,0,1-11.525,11.169,41.759,41.759,0,0,1-15.942,6.461,41.009,41.009,0,0,1-17.189-.575,81.2,81.2,0,0,1-15.06-5.588c-4.643-2.152-8.976-4.347-13.142-6.151a69.046,69.046,0,0,0-11.919-4.058,44.08,44.08,0,0,0-10.3-1.186,31.286,31.286,0,0,0-7.751,1.055,27.617,27.617,0,0,0-4.612,1.808l-1.143.6a2.861,2.861,0,0,1-.4.191,2.632,2.632,0,0,1,.372-.237l1.122-.651a25.8,25.8,0,0,1,4.605-1.91,30.824,30.824,0,0,1,7.8-1.151,43.831,43.831,0,0,1,10.387,1.118,68.674,68.674,0,0,1,12.009,4.021c4.187,1.793,8.533,3.976,13.171,6.111a81.292,81.292,0,0,0,14.978,5.528,40.6,40.6,0,0,0,16.977.558,41.343,41.343,0,0,0,15.749-6.371,52.253,52.253,0,0,0,11.436-11.047c3.19-3.981,6.01-7.943,8.908-11.46a48.071,48.071,0,0,1,9.048-8.852c6.273-4.642,12.77-6.163,17.085-5.82a19.058,19.058,0,0,1,2.857.393c.8.245,1.49.407,2.019.62l1.191.517A2.708,2.708,0,0,1,456.313,325.044Z" fill="#fff"/>
        </g>
        <g id="Group_54" data-name="Group 54">
          <path id="Path_53" data-name="Path 53" d="M462.617,258.3c.01.055-.712.149-1.944.558a19.265,19.265,0,0,0-4.828,2.585c-1.908,1.331-3.976,3.19-6.411,5.114a46.594,46.594,0,0,1-8.593,5.287,47.283,47.283,0,0,1-17.665,4.565c-1.169.1-2.233.062-3.164.083-.931-.038-1.733-.054-2.386-.1l-1.5-.153a2.087,2.087,0,0,1-.519-.088,2.013,2.013,0,0,1,.528-.016l1.5.054,2.376.016c.924-.049,1.98-.04,3.139-.16a49.222,49.222,0,0,0,17.465-4.667,47.9,47.9,0,0,0,8.524-5.2c2.43-1.886,4.538-3.729,6.495-5.038a17.971,17.971,0,0,1,4.977-2.475,10.569,10.569,0,0,1,1.48-.32A1.982,1.982,0,0,1,462.617,258.3Z" fill="#fff"/>
        </g>
        <g id="Group_55" data-name="Group 55">
          <path id="Path_54" data-name="Path 54" d="M331.994,281.466a2.277,2.277,0,0,1-.549-.078c-.354-.078-.889-.157-1.554-.345a23.792,23.792,0,0,1-5.357-2.35,53.789,53.789,0,0,1-7-5.115c-2.512-2.074-5.191-4.448-8.265-6.572a28.507,28.507,0,0,0-9.49-4.35,29.178,29.178,0,0,0-14.235.064c-1.33.336-2.048.6-2.065.546a2.194,2.194,0,0,1,.507-.225c.34-.128.838-.331,1.5-.516a25.847,25.847,0,0,1,5.755-1.047,28.22,28.22,0,0,1,18.319,5.1c3.111,2.15,5.791,4.546,8.279,6.634a57.236,57.236,0,0,0,6.882,5.167,26.053,26.053,0,0,0,5.227,2.472C331.261,281.24,332,281.421,331.994,281.466Z" fill="#fff"/>
        </g>
        <g id="Group_56" data-name="Group 56">
          <path id="Path_55" data-name="Path 55" d="M332.17,186.942a11.612,11.612,0,0,1-1.667.61c-.541.188-1.208.4-2,.592s-1.677.464-2.685.644c-1,.21-2.1.429-3.3.578-1.189.2-2.472.292-3.821.413a53.947,53.947,0,0,1-17.474-1.643c-1.3-.371-2.547-.7-3.678-1.119-1.147-.369-2.186-.789-3.132-1.182-.956-.365-1.781-.79-2.517-1.133s-1.355-.669-1.851-.954a11.654,11.654,0,0,1-1.524-.91,11.4,11.4,0,0,1,1.617.73c.508.256,1.134.56,1.881.87s1.573.715,2.532,1.056c.948.368,1.987.765,3.13,1.114,1.128.4,2.367.708,3.661,1.063a56.626,56.626,0,0,0,17.324,1.629c1.338-.107,2.613-.183,3.8-.362,1.188-.129,2.283-.326,3.283-.511,1.005-.156,1.895-.393,2.684-.565s1.464-.347,2.011-.5A11.587,11.587,0,0,1,332.17,186.942Z" fill="#fff"/>
        </g>
        <g id="Group_57" data-name="Group 57">
          <path id="Path_56" data-name="Path 56" d="M456.943,186.688a1.626,1.626,0,0,1-.425-.205l-1.161-.67A18.3,18.3,0,0,0,453.5,184.8c-.742-.359-1.559-.825-2.531-1.192l-1.5-.624c-.524-.213-1.092-.373-1.667-.573-1.144-.424-2.415-.713-3.74-1.057a41.308,41.308,0,0,0-17.68-.156c-1.331.32-2.607.587-3.758.991-.579.19-1.15.34-1.677.543l-1.514.6c-.978.35-1.8.8-2.551,1.147a18.274,18.274,0,0,0-1.874.981l-1.172.65a1.673,1.673,0,0,1-.429.2c-.01-.015.118-.113.372-.286l1.126-.735a15.651,15.651,0,0,1,1.844-1.066,25.917,25.917,0,0,1,2.541-1.227l1.517-.635c.529-.216,1.1-.378,1.685-.579a38.344,38.344,0,0,1,3.79-1.048,40.108,40.108,0,0,1,17.888.158A37.953,37.953,0,0,1,447.939,182c.578.211,1.149.383,1.675.608l1.5.661a25.968,25.968,0,0,1,2.519,1.273,15.835,15.835,0,0,1,1.825,1.1l1.113.756C456.827,186.573,456.953,186.673,456.943,186.688Z" fill="#fff"/>
        </g>
        <g id="Group_58" data-name="Group 58">
          <path id="Path_57" data-name="Path 57" d="M395.8,118.763a5.056,5.056,0,0,1-.724.433l-2.122,1.149c-1.849.986-4.532,2.4-7.885,4.075-6.7,3.314-16.118,7.838-27.256,10.66a74.678,74.678,0,0,1-15.986,2.22,57.33,57.33,0,0,1-13.131-1.126,45.861,45.861,0,0,1-8.5-2.6c-.981-.376-1.7-.778-2.2-1.005a4.858,4.858,0,0,1-.744-.394,5.264,5.264,0,0,1,.789.3c.515.2,1.24.566,2.228.912a49.685,49.685,0,0,0,8.494,2.424,58.642,58.642,0,0,0,13.046,1.008,75.989,75.989,0,0,0,15.873-2.245c11.071-2.8,20.484-7.259,27.22-10.486l7.955-3.924,2.166-1.062A5.17,5.17,0,0,1,395.8,118.763Z" fill="#fff"/>
        </g>
      </g>
      <g id="Group_85" data-name="Group 85">
        <g id="Group_60" data-name="Group 60">
          <path id="Path_58" data-name="Path 58" d="M195.057,293l33.432,1.46-1.547,35.43-33.431-1.46-2.57,58.869-43.97-1.92,2.57-58.868L35.983,321.551l.086-26.98,121-173.8,45.423,1.982Zm-115.01-5.02,71.04,3.1L155.775,183.7l-1.075-.412-3.974,7.655Z" fill="#37a2d0"/>
        </g>
        <g id="Group_61" data-name="Group 61" opacity="0.4">
          <path id="Path_59" data-name="Path 59" d="M195.057,293l33.432,1.46-1.547,35.43-33.431-1.46-2.57,58.869-43.97-1.92,2.57-58.868L35.983,321.551l.086-26.98,121-173.8,45.423,1.982Zm-115.01-5.02,71.04,3.1L155.775,183.7l-1.075-.412-3.974,7.655Z"/>
        </g>
        <g id="Group_62" data-name="Group 62">
          <path id="Path_60" data-name="Path 60" d="M223.015,294.218l33.433,1.46-1.547,35.43-33.432-1.46-2.57,58.868L174.93,386.6l2.57-58.868L63.943,322.772l.085-26.981,121-173.8,45.422,1.983ZM108,289.2l71.041,3.1,4.688-107.38-1.075-.411-3.974,7.654Z" fill="#37a2d0"/>
        </g>
        <g id="Group_84" data-name="Group 84">
          <g id="Group_63" data-name="Group 63">
            <path id="Path_61" data-name="Path 61" d="M64.6,300.921a5.694,5.694,0,0,1-1.083.606c-.71.36-1.748.861-3.037,1.466-2.579,1.21-6.168,2.822-10.17,4.514s-7.662,3.143-10.326,4.149c-1.332.5-2.415.9-3.168,1.157a5.711,5.711,0,0,1-1.189.354,5.665,5.665,0,0,1,1.115-.543l3.106-1.31L50.1,307.027l10.222-4.37,3.1-1.314A5.635,5.635,0,0,1,64.6,300.921Z" fill="#37a2d0"/>
          </g>
          <g id="Group_64" data-name="Group 64">
            <path id="Path_62" data-name="Path 62" d="M80.867,270.975a10.581,10.581,0,0,1-1.506.8c-.986.48-2.421,1.154-4.2,1.966-3.565,1.625-8.522,3.8-14.026,6.125s-10.519,4.368-14.169,5.792c-1.824.713-3.308,1.272-4.338,1.644a10.585,10.585,0,0,1-1.621.525,10.654,10.654,0,0,1,1.546-.713l4.275-1.8,14.1-5.93,14.08-5.982,4.268-1.814A10.732,10.732,0,0,1,80.867,270.975Z" fill="#37a2d0"/>
          </g>
          <g id="Group_65" data-name="Group 65">
            <path id="Path_63" data-name="Path 63" d="M100.735,244.273a11.267,11.267,0,0,1-1.576.8c-1.03.481-2.53,1.156-4.392,1.967-3.723,1.627-8.9,3.8-14.642,6.127s-10.976,4.368-14.782,5.79c-1.9.713-3.448,1.272-4.522,1.644a11.405,11.405,0,0,1-1.687.523,11.453,11.453,0,0,1,1.616-.713l4.46-1.8,14.72-5.929L94.624,246.7l4.454-1.814A11.5,11.5,0,0,1,100.735,244.273Z" fill="#37a2d0"/>
          </g>
          <g id="Group_66" data-name="Group 66">
            <path id="Path_64" data-name="Path 64" d="M180.327,275.113a5.691,5.691,0,0,1-1.087.587c-.713.348-1.754.831-3.047,1.414-2.584,1.166-6.181,2.72-10.191,4.345s-7.678,3.011-10.345,3.972c-1.334.481-2.418.858-3.172,1.105a5.588,5.588,0,0,1-1.189.334,5.768,5.768,0,0,1,1.118-.524l3.112-1.259,10.28-4.11,10.242-4.2,3.11-1.262A5.651,5.651,0,0,1,180.327,275.113Z" fill="#37a2d0"/>
          </g>
          <g id="Group_67" data-name="Group 67">
            <path id="Path_65" data-name="Path 65" d="M177.093,330.051a5.306,5.306,0,0,1-1.05.586c-.69.348-1.7.831-2.95,1.413-2.5,1.166-5.988,2.72-9.875,4.344s-7.445,3.012-10.033,3.974c-1.294.481-2.346.858-3.077,1.1a5.4,5.4,0,0,1-1.156.336,5.324,5.324,0,0,1,1.083-.525l3.016-1.259,9.966-4.111,9.927-4.2,3.015-1.261A5.316,5.316,0,0,1,177.093,330.051Z" fill="#37a2d0"/>
          </g>
          <g id="Group_68" data-name="Group 68">
            <path id="Path_66" data-name="Path 66" d="M176.631,349.306a5.369,5.369,0,0,1-1.051.587c-.69.347-1.7.83-2.95,1.413-2.5,1.165-5.988,2.719-9.875,4.344s-7.444,3.011-10.033,3.973c-1.294.481-2.345.859-3.077,1.106a5.428,5.428,0,0,1-1.156.335,5.332,5.332,0,0,1,1.083-.524l3.016-1.26,9.966-4.111,9.927-4.2,3.016-1.261A5.387,5.387,0,0,1,176.631,349.306Z" fill="#37a2d0"/>
          </g>
          <g id="Group_69" data-name="Group 69">
            <path id="Path_67" data-name="Path 67" d="M176.168,368.562a5.431,5.431,0,0,1-1.051.586c-.69.347-1.7.83-2.949,1.413-2.5,1.165-5.988,2.719-9.876,4.344s-7.444,3.011-10.032,3.973c-1.295.481-2.346.859-3.078,1.106a5.3,5.3,0,0,1-1.155.335,5.4,5.4,0,0,1,1.082-.524l3.016-1.26,9.966-4.111,9.927-4.2,3.016-1.261A5.337,5.337,0,0,1,176.168,368.562Z" fill="#37a2d0"/>
          </g>
          <g id="Group_70" data-name="Group 70">
            <path id="Path_68" data-name="Path 68" d="M180.847,254.771a5.647,5.647,0,0,1-1.087.587c-.713.347-1.754.831-3.046,1.414-2.585,1.166-6.182,2.72-10.192,4.345s-7.677,3.011-10.345,3.972c-1.334.481-2.417.858-3.171,1.105a5.622,5.622,0,0,1-1.189.334,5.616,5.616,0,0,1,1.118-.524l3.112-1.259,10.28-4.111,10.241-4.2,3.111-1.262A5.561,5.561,0,0,1,180.847,254.771Z" fill="#37a2d0"/>
          </g>
          <g id="Group_71" data-name="Group 71">
            <path id="Path_69" data-name="Path 69" d="M181.367,234.429a5.682,5.682,0,0,1-1.086.587c-.714.347-1.754.83-3.047,1.414-2.585,1.166-6.181,2.72-10.191,4.345s-7.678,3.01-10.345,3.972c-1.334.48-2.418.858-3.172,1.1a5.562,5.562,0,0,1-1.189.335,5.651,5.651,0,0,1,1.118-.525l3.112-1.258,10.28-4.111,10.242-4.2,3.11-1.261A5.6,5.6,0,0,1,181.367,234.429Z" fill="#37a2d0"/>
          </g>
          <g id="Group_72" data-name="Group 72">
            <path id="Path_70" data-name="Path 70" d="M181.888,214.086a5.129,5.129,0,0,1-1.033.564c-.679.333-1.67.8-2.9,1.353-2.46,1.115-5.884,2.6-9.705,4.151s-7.317,2.861-9.86,3.773c-1.271.455-2.3.813-3.023,1.046a5.124,5.124,0,0,1-1.134.314,5.084,5.084,0,0,1,1.063-.5l2.964-1.2,9.795-3.91,9.754-4.007,2.964-1.2A5.122,5.122,0,0,1,181.888,214.086Z" fill="#37a2d0"/>
          </g>
          <g id="Group_73" data-name="Group 73">
            <path id="Path_71" data-name="Path 71" d="M184.186,195.077a28.6,28.6,0,0,1-5.013,2.136,28.613,28.613,0,0,1-5.194,1.647,28.608,28.608,0,0,1,5.013-2.135A28.736,28.736,0,0,1,184.186,195.077Z" fill="#37a2d0"/>
          </g>
          <g id="Group_74" data-name="Group 74">
            <path id="Path_72" data-name="Path 72" d="M120.572,216.588a11.405,11.405,0,0,1-1.577.8c-1.03.48-2.529,1.155-4.391,1.967-3.723,1.627-8.9,3.8-14.642,6.127s-10.976,4.368-14.782,5.79c-1.9.713-3.449,1.271-4.522,1.643a11.293,11.293,0,0,1-1.688.524,11.6,11.6,0,0,1,1.616-.713l4.461-1.8L99.766,225l14.694-5.983,4.455-1.814A11.443,11.443,0,0,1,120.572,216.588Z" fill="#37a2d0"/>
          </g>
          <g id="Group_75" data-name="Group 75">
            <path id="Path_73" data-name="Path 73" d="M140.408,188.9a11.409,11.409,0,0,1-1.576.8c-1.03.48-2.53,1.155-4.392,1.967-3.723,1.627-8.9,3.8-14.642,6.127s-10.976,4.367-14.782,5.79c-1.9.712-3.448,1.271-4.522,1.643a11.507,11.507,0,0,1-1.687.524,11.442,11.442,0,0,1,1.616-.714l4.46-1.8,14.72-5.929,14.694-5.983,4.454-1.814A11.493,11.493,0,0,1,140.408,188.9Z" fill="#37a2d0"/>
          </g>
          <g id="Group_76" data-name="Group 76">
            <path id="Path_74" data-name="Path 74" d="M158.741,161.218a11.469,11.469,0,0,1-1.577.8c-1.029.48-2.529,1.155-4.391,1.967-3.723,1.627-8.9,3.8-14.642,6.127s-10.976,4.367-14.782,5.789c-1.9.713-3.449,1.272-4.522,1.644a11.608,11.608,0,0,1-1.688.524,11.513,11.513,0,0,1,1.616-.714l4.461-1.8,14.719-5.929,14.7-5.984,4.454-1.813A11.443,11.443,0,0,1,158.741,161.218Z" fill="#37a2d0"/>
          </g>
          <g id="Group_77" data-name="Group 77">
            <path id="Path_75" data-name="Path 75" d="M177.816,134.6a11.637,11.637,0,0,1-1.577.8c-1.03.481-2.529,1.156-4.391,1.967-3.723,1.627-8.9,3.8-14.642,6.127s-10.976,4.368-14.782,5.79c-1.9.713-3.449,1.272-4.522,1.644a11.667,11.667,0,0,1-1.687.524,11.24,11.24,0,0,1,1.615-.714l4.461-1.8,14.719-5.929,14.694-5.984,4.455-1.813A11.292,11.292,0,0,1,177.816,134.6Z" fill="#37a2d0"/>
          </g>
          <g id="Group_78" data-name="Group 78">
            <path id="Path_76" data-name="Path 76" d="M228.444,175.274a5.593,5.593,0,0,1-.583.655,20.483,20.483,0,0,1-1.811,1.751,31.839,31.839,0,0,1-7.774,5.015,34.021,34.021,0,0,1-13.357,3.047,31.257,31.257,0,0,1-8.086-.909,41.473,41.473,0,0,1-8.177-3.051c-5.378-2.62-10.156-5.711-14.83-7.863a33.938,33.938,0,0,0-13.1-3.417,19.442,19.442,0,0,0-8.932,1.669,15.769,15.769,0,0,0-2.166,1.241,5.52,5.52,0,0,1-.741.469,5.4,5.4,0,0,1,.68-.555,13.578,13.578,0,0,1,2.138-1.337,19.137,19.137,0,0,1,9.032-1.856,33.815,33.815,0,0,1,13.286,3.351c4.723,2.146,9.518,5.231,14.854,7.829a41.433,41.433,0,0,0,8.074,3.025,31.051,31.051,0,0,0,7.955.924,34.177,34.177,0,0,0,13.214-2.9,33.276,33.276,0,0,0,7.793-4.833c.851-.68,1.451-1.275,1.868-1.67A5.6,5.6,0,0,1,228.444,175.274Z" fill="#fff"/>
          </g>
          <g id="Group_79" data-name="Group 79">
            <path id="Path_77" data-name="Path 77" d="M214.517,125.831a8.05,8.05,0,0,1-1.27.738c-.83.454-2.068,1.042-3.626,1.7a55.4,55.4,0,0,1-5.6,2,57.016,57.016,0,0,1-14.347,2.34,55.11,55.11,0,0,1-5.945-.119c-1.686-.129-3.047-.292-3.978-.459a7.823,7.823,0,0,1-1.439-.3,8.065,8.065,0,0,1,1.465.1c.936.1,2.295.212,3.975.293s3.683.1,5.9.007a62.016,62.016,0,0,0,14.233-2.322c2.133-.62,4.03-1.264,5.594-1.882s2.821-1.145,3.675-1.542A8.015,8.015,0,0,1,214.517,125.831Z" fill="#fff"/>
          </g>
          <g id="Group_80" data-name="Group 80">
            <path id="Path_78" data-name="Path 78" d="M143.524,236.888a7.082,7.082,0,0,1-.9-1.011l-2.368-2.815a111.429,111.429,0,0,0-8.374-8.753,30.485,30.485,0,0,0-5.248-4.036,16,16,0,0,0-5-1.941,14.262,14.262,0,0,0-4.957-.034c0-.018.108-.062.328-.132a7.009,7.009,0,0,1,.983-.229,11.222,11.222,0,0,1,3.712.032,15.659,15.659,0,0,1,5.173,1.888,29.31,29.31,0,0,1,5.363,4.069,88.709,88.709,0,0,1,8.3,8.9c.981,1.211,1.738,2.219,2.246,2.927A6.465,6.465,0,0,1,143.524,236.888Z" fill="#fff"/>
          </g>
          <g id="Group_81" data-name="Group 81">
            <path id="Path_79" data-name="Path 79" d="M223.288,267.1a1.739,1.739,0,0,1-.39.3c-.27.175-.652.462-1.187.763a28.315,28.315,0,0,1-4.688,2.228,30.628,30.628,0,0,1-31.967-6.545,28.28,28.28,0,0,1-3.435-3.893c-.373-.486-.612-.9-.791-1.167a1.75,1.75,0,0,1-.241-.43,17.529,17.529,0,0,1,1.193,1.474,32.826,32.826,0,0,0,3.525,3.746A31.13,31.13,0,0,0,216.9,270.05a32.868,32.868,0,0,0,4.714-2.059A17.605,17.605,0,0,1,223.288,267.1Z" fill="#fff"/>
          </g>
          <g id="Group_82" data-name="Group 82">
            <path id="Path_80" data-name="Path 80" d="M252.424,330.419s-.1-.154-.287-.464l-.795-1.383a38.99,38.99,0,0,0-3.418-5.072l-1.361-1.605-.733-.864-.846-.832-1.8-1.775-2.1-1.745a47.361,47.361,0,0,0-10.978-6.528,45.261,45.261,0,0,0-15.046-3.493,41.841,41.841,0,0,0-17.429,2.8c-5.848,2.3-11.5,5.776-17.475,9.136a83.567,83.567,0,0,1-9.393,4.654,38.35,38.35,0,0,1-10.45,2.745,33.878,33.878,0,0,1-10.785-.652,48.293,48.293,0,0,1-9.931-3.393,103.265,103.265,0,0,1-16.91-10.279c-5.136-3.651-9.98-7.174-14.813-9.991A53.775,53.775,0,0,0,93.641,295.6a36.539,36.539,0,0,0-12.708-.836,26.885,26.885,0,0,0-9.236,2.672,23.453,23.453,0,0,0-5.028,3.447l-1.124,1.128c-.256.253-.4.374-.4.374s.114-.145.357-.41L66.6,300.8a22.651,22.651,0,0,1,5.008-3.551,26.851,26.851,0,0,1,9.294-2.781,36.63,36.63,0,0,1,12.828.768A53.907,53.907,0,0,1,108.09,301.3c4.867,2.815,9.733,6.335,14.872,9.973a103.477,103.477,0,0,0,16.845,10.206,47.888,47.888,0,0,0,9.828,3.351,33.41,33.41,0,0,0,10.622.64,37.934,37.934,0,0,0,10.31-2.707,83.387,83.387,0,0,0,9.338-4.619c5.967-3.345,11.643-6.824,17.549-9.138a38.558,38.558,0,0,1,4.461-1.44c.748-.19,1.483-.416,2.227-.572l2.238-.368a42.892,42.892,0,0,1,8.7-.4,45.43,45.43,0,0,1,15.164,3.585,47.287,47.287,0,0,1,11.018,6.64l2.1,1.773,1.8,1.8.842.845.729.876,1.35,1.628a36.525,36.525,0,0,1,3.351,5.145c.322.606.572,1.075.751,1.411C252.351,330.25,252.424,330.419,252.424,330.419Z" fill="#fff"/>
          </g>
          <g id="Group_83" data-name="Group 83">
            <path id="Path_81" data-name="Path 81" d="M222.2,372.187a1.969,1.969,0,0,1-.507.134l-1.477.282a22.172,22.172,0,0,1-2.354.343c-.923.093-1.972.248-3.141.271l-1.834.081c-.638.023-1.3-.013-1.989-.018-1.378.012-2.841-.132-4.384-.252a54.955,54.955,0,0,1-19.226-5.6c-1.366-.728-2.678-1.393-3.834-2.142-.582-.365-1.161-.692-1.687-1.054l-1.5-1.053c-.974-.647-1.775-1.342-2.5-1.915a22.685,22.685,0,0,1-1.8-1.554l-1.094-1.032a1.918,1.918,0,0,1-.356-.385,2.068,2.068,0,0,1,.427.308l1.156.956c.491.426,1.1.936,1.849,1.478s1.553,1.219,2.535,1.843l1.511,1.017c.528.351,1.108.666,1.691,1.021,1.156.727,2.465,1.372,3.824,2.082a57,57,0,0,0,19.064,5.554c1.528.131,2.978.29,4.344.3.682.014,1.341.059,1.974.047l1.821-.046c1.163,0,2.207-.129,3.128-.193s1.711-.159,2.354-.254l1.488-.186A2.112,2.112,0,0,1,222.2,372.187Z" fill="#fff"/>
          </g>
        </g>
      </g>
      <g id="Group_111" data-name="Group 111">
        <g id="Group_86" data-name="Group 86">
          <path id="Path_82" data-name="Path 82" d="M629.316,293.412l33.3-3.256,3.452,35.295-33.3,3.256,5.736,58.645-43.8,4.284-5.736-58.644L475.84,344.055l-3.71-26.725,95.35-189.09,45.25-4.426ZM514.743,304.618l70.771-6.921L575.052,190.724l-1.122-.255-2.857,8.137Z" fill="#37a2d0"/>
        </g>
        <g id="Group_87" data-name="Group 87" opacity="0.4">
          <path id="Path_83" data-name="Path 83" d="M629.316,293.412l33.3-3.256,3.452,35.295-33.3,3.256,5.736,58.645-43.8,4.284-5.736-58.644L475.84,344.055l-3.71-26.725,95.35-189.09,45.25-4.426ZM514.743,304.618l70.771-6.921L575.052,190.724l-1.122-.255-2.857,8.137Z"/>
        </g>
        <g id="Group_88" data-name="Group 88">
          <path id="Path_84" data-name="Path 84" d="M657.169,290.689l33.3-3.258,3.452,35.3-33.3,3.258,5.735,58.644-43.8,4.283-5.735-58.644L503.692,341.331l-3.709-26.724,95.35-189.092,45.25-4.425ZM542.595,301.894l70.772-6.922L602.906,188l-1.123-.255-2.858,8.137Z" fill="#37a2d0"/>
        </g>
        <g id="Group_110" data-name="Group 110">
          <g id="Group_89" data-name="Group 89">
            <path id="Path_85" data-name="Path 85" d="M501.265,319.606a5.713,5.713,0,0,1-.987.753c-.653.456-1.61,1.1-2.8,1.878-2.382,1.56-5.709,3.661-9.434,5.9s-7.144,4.189-9.64,5.56c-1.248.685-2.264,1.229-2.974,1.591a5.585,5.585,0,0,1-1.127.517,5.754,5.754,0,0,1,1.028-.694l2.89-1.734,9.555-5.687,9.505-5.764,2.889-1.738A5.7,5.7,0,0,1,501.265,319.606Z" fill="#37a2d0"/>
          </g>
          <g id="Group_90" data-name="Group 90">
            <path id="Path_86" data-name="Path 86" d="M513.163,287.67a10.551,10.551,0,0,1-1.379,1c-.908.614-2.234,1.483-3.885,2.537-3.3,2.112-7.9,4.958-13.024,8.038s-9.8,5.8-13.214,7.726c-1.706.963-3.1,1.725-4.064,2.239a10.723,10.723,0,0,1-1.531.748,10.6,10.6,0,0,1,1.431-.924l3.979-2.381,13.131-7.855,13.1-7.9,3.97-2.4A10.529,10.529,0,0,1,513.163,287.67Z" fill="#37a2d0"/>
          </g>
          <g id="Group_91" data-name="Group 91">
            <path id="Path_87" data-name="Path 87" d="M529.079,258.439a11.511,11.511,0,0,1-1.449,1.011c-.952.621-2.342,1.5-4.071,2.565-3.457,2.135-8.276,5.013-13.635,8.126s-10.252,5.868-13.82,7.811c-1.783.973-3.236,1.744-4.247,2.263a11.394,11.394,0,0,1-1.6.756,11.429,11.429,0,0,1,1.5-.933c1.057-.612,2.462-1.424,4.164-2.407l13.739-7.94,13.706-7.991,4.155-2.422A11.4,11.4,0,0,1,529.079,258.439Z" fill="#37a2d0"/>
          </g>
          <g id="Group_92" data-name="Group 92">
            <path id="Path_88" data-name="Path 88" d="M612.216,277.777a5.556,5.556,0,0,1-.993.735c-.657.444-1.62,1.069-2.817,1.828-2.4,1.518-5.738,3.563-9.48,5.735s-7.177,4.061-9.683,5.388c-1.253.663-2.273,1.189-2.985,1.54a5.539,5.539,0,0,1-1.13.5,5.625,5.625,0,0,1,1.034-.677l2.9-1.684,9.6-5.515,9.549-5.6,2.9-1.686A5.759,5.759,0,0,1,612.216,277.777Z" fill="#37a2d0"/>
          </g>
          <g id="Group_93" data-name="Group 93">
            <path id="Path_89" data-name="Path 89" d="M616.742,332.624a5.32,5.32,0,0,1-.957.729c-.635.44-1.565,1.06-2.722,1.813-2.315,1.506-5.546,3.535-9.166,5.69s-6.947,4.029-9.374,5.345c-1.214.658-2.2,1.18-2.892,1.528a5.358,5.358,0,0,1-1.1.494,5.351,5.351,0,0,1,1-.672l2.81-1.671,9.288-5.472,9.238-5.554,2.808-1.673A5.4,5.4,0,0,1,616.742,332.624Z" fill="#37a2d0"/>
          </g>
          <g id="Group_94" data-name="Group 94">
            <path id="Path_90" data-name="Path 90" d="M618.992,351.753a5.294,5.294,0,0,1-.957.728c-.635.441-1.565,1.061-2.722,1.814-2.315,1.506-5.546,3.534-9.167,5.69s-6.946,4.028-9.373,5.345c-1.214.658-2.2,1.18-2.892,1.527a5.336,5.336,0,0,1-1.1.495,5.351,5.351,0,0,1,1-.672l2.809-1.671,9.289-5.472,9.238-5.554,2.808-1.673A5.4,5.4,0,0,1,618.992,351.753Z" fill="#37a2d0"/>
          </g>
          <g id="Group_95" data-name="Group 95">
            <path id="Path_91" data-name="Path 91" d="M621.242,370.882a5.282,5.282,0,0,1-.958.728c-.634.441-1.564,1.061-2.721,1.814-2.315,1.506-5.546,3.534-9.167,5.69s-6.946,4.028-9.373,5.345c-1.214.658-2.2,1.18-2.892,1.527a5.336,5.336,0,0,1-1.1.495,5.351,5.351,0,0,1,1-.672l2.809-1.671,9.289-5.472,9.238-5.554,2.808-1.673A5.4,5.4,0,0,1,621.242,370.882Z" fill="#37a2d0"/>
          </g>
          <g id="Group_96" data-name="Group 96">
            <path id="Path_92" data-name="Path 92" d="M609.871,257.564a5.562,5.562,0,0,1-.994.734c-.657.445-1.62,1.07-2.817,1.829-2.4,1.518-5.737,3.563-9.479,5.735s-7.178,4.061-9.684,5.388c-1.253.663-2.273,1.189-2.984,1.539a5.721,5.721,0,0,1-1.13.5,5.586,5.586,0,0,1,1.033-.677l2.9-1.684,9.6-5.515,9.549-5.6,2.9-1.686A5.65,5.65,0,0,1,609.871,257.564Z" fill="#37a2d0"/>
          </g>
          <g id="Group_97" data-name="Group 97">
            <path id="Path_93" data-name="Path 93" d="M607.525,237.351a5.626,5.626,0,0,1-.994.734c-.657.445-1.619,1.069-2.817,1.828-2.4,1.518-5.737,3.563-9.479,5.736s-7.178,4.06-9.684,5.388c-1.253.663-2.272,1.189-2.984,1.539a5.722,5.722,0,0,1-1.13.5,5.633,5.633,0,0,1,1.033-.677l2.9-1.684,9.6-5.515,9.549-5.6,2.9-1.686A5.648,5.648,0,0,1,607.525,237.351Z" fill="#37a2d0"/>
          </g>
          <g id="Group_98" data-name="Group 98">
            <path id="Path_94" data-name="Path 94" d="M605.179,217.138a5.156,5.156,0,0,1-.944.7c-.625.425-1.541,1.022-2.68,1.748-2.279,1.449-5.459,3.4-9.025,5.474s-6.842,3.862-9.231,5.122c-1.2.63-2.168,1.129-2.846,1.461a5.2,5.2,0,0,1-1.079.471,5.086,5.086,0,0,1,.982-.649l2.766-1.6,9.147-5.25,9.094-5.339,2.766-1.6A5.072,5.072,0,0,1,605.179,217.138Z" fill="#37a2d0"/>
          </g>
          <g id="Group_99" data-name="Group 99">
            <path id="Path_95" data-name="Path 95" d="M604.781,197.995a57.009,57.009,0,0,1-9.574,5.18,57.009,57.009,0,0,1,9.574-5.18Z" fill="#37a2d0"/>
          </g>
          <g id="Group_100" data-name="Group 100">
            <path id="Path_96" data-name="Path 96" d="M544.824,228.239a11.487,11.487,0,0,1-1.448,1.012c-.953.62-2.342,1.5-4.072,2.565-3.457,2.134-8.275,5.012-13.634,8.125s-10.253,5.868-13.821,7.811c-1.783.973-3.235,1.744-4.246,2.263a11.364,11.364,0,0,1-1.6.756,11.609,11.609,0,0,1,1.5-.933l4.164-2.407,13.739-7.94,13.707-7.991,4.155-2.422A11.434,11.434,0,0,1,544.824,228.239Z" fill="#37a2d0"/>
          </g>
          <g id="Group_101" data-name="Group 101">
            <path id="Path_97" data-name="Path 97" d="M560.57,198.039a11.571,11.571,0,0,1-1.449,1.012c-.952.62-2.342,1.5-4.071,2.565-3.457,2.134-8.276,5.012-13.635,8.125s-10.252,5.868-13.82,7.811c-1.783.974-3.236,1.744-4.247,2.263a11.4,11.4,0,0,1-1.6.756,11.421,11.421,0,0,1,1.5-.933l4.164-2.407,13.739-7.94L554.86,201.3l4.155-2.422A11.4,11.4,0,0,1,560.57,198.039Z" fill="#37a2d0"/>
          </g>
          <g id="Group_102" data-name="Group 102">
            <path id="Path_98" data-name="Path 98" d="M574.826,168.05a11.371,11.371,0,0,1-1.448,1.012c-.952.62-2.342,1.5-4.072,2.565-3.457,2.135-8.275,5.012-13.634,8.126s-10.253,5.867-13.821,7.811c-1.783.973-3.235,1.744-4.246,2.263a11.358,11.358,0,0,1-1.6.756,11.4,11.4,0,0,1,1.5-.934l4.164-2.406L555.41,179.3l13.707-7.991,4.155-2.422A11.586,11.586,0,0,1,574.826,168.05Z" fill="#37a2d0"/>
          </g>
          <g id="Group_103" data-name="Group 103">
            <path id="Path_99" data-name="Path 99" d="M589.968,139.013a11.578,11.578,0,0,1-1.449,1.012c-.952.62-2.342,1.5-4.071,2.565-3.457,2.134-8.276,5.012-13.635,8.125s-10.252,5.868-13.82,7.811c-1.783.973-3.236,1.744-4.247,2.263a11.394,11.394,0,0,1-1.6.756,11.513,11.513,0,0,1,1.5-.933l4.164-2.407,13.739-7.94,13.706-7.991,4.155-2.422A11.394,11.394,0,0,1,589.968,139.013Z" fill="#37a2d0"/>
          </g>
          <g id="Group_104" data-name="Group 104">
            <path id="Path_100" data-name="Path 100" d="M645.814,172.163a5.4,5.4,0,0,1-.486.731,20.461,20.461,0,0,1-1.547,1.988,31.815,31.815,0,0,1-6.99,6.059,34.042,34.042,0,0,1-12.8,4.9,31.285,31.285,0,0,1-8.133.238,41.512,41.512,0,0,1-8.525-1.871c-5.693-1.838-10.858-4.226-15.788-5.7a33.93,33.93,0,0,0-13.445-1.542,19.454,19.454,0,0,0-8.609,2.909,15.8,15.8,0,0,0-1.97,1.533,5.618,5.618,0,0,1-.668.569,5.6,5.6,0,0,1,.6-.645,13.568,13.568,0,0,1,1.928-1.625,19.13,19.13,0,0,1,8.682-3.107,33.79,33.79,0,0,1,13.625,1.449c4.978,1.46,10.159,3.84,15.807,5.662a41.529,41.529,0,0,0,8.419,1.859,31.025,31.025,0,0,0,8.007-.2,34.192,34.192,0,0,0,12.674-4.732,33.262,33.262,0,0,0,7.035-5.882c.747-.793,1.258-1.467,1.615-1.916A5.587,5.587,0,0,1,645.814,172.163Z" fill="#fff"/>
          </g>
          <g id="Group_105" data-name="Group 105">
            <path id="Path_101" data-name="Path 101" d="M625.071,125.17a7.924,7.924,0,0,1-1.154.91c-.757.566-1.9,1.322-3.351,2.193a55.26,55.26,0,0,1-5.26,2.769,56.919,56.919,0,0,1-13.876,4.335,55.239,55.239,0,0,1-5.9.719c-1.688.109-3.058.139-4,.1a7.843,7.843,0,0,1-1.466-.091,7.94,7.94,0,0,1,1.464-.112c.941-.027,2.3-.113,3.976-.268s3.66-.423,5.845-.824a61.908,61.908,0,0,0,13.764-4.3c2.025-.914,3.813-1.818,5.274-2.651s2.632-1.529,3.422-2.042A7.971,7.971,0,0,1,625.071,125.17Z" fill="#fff"/>
          </g>
          <g id="Group_106" data-name="Group 106">
            <path id="Path_102" data-name="Path 102" d="M570.4,245.109a7.113,7.113,0,0,1-1.034-.875l-2.74-2.453a111.1,111.1,0,0,0-9.522-7.489,30.414,30.414,0,0,0-5.763-3.257,16.009,16.009,0,0,0-5.224-1.22,14.261,14.261,0,0,0-4.912.664c-.007-.016.1-.077.306-.177a7.109,7.109,0,0,1,.941-.364,11.2,11.2,0,0,1,3.679-.491,15.651,15.651,0,0,1,5.388,1.142,29.3,29.3,0,0,1,5.881,3.274,88.692,88.692,0,0,1,9.473,7.644c1.141,1.061,2.033,1.952,2.635,2.582A6.423,6.423,0,0,1,570.4,245.109Z" fill="#fff"/>
          </g>
          <g id="Group_107" data-name="Group 107">
            <path id="Path_103" data-name="Path 103" d="M653.625,263.806c.011.013-.107.134-.344.352s-.581.55-1.068.923a28.294,28.294,0,0,1-4.329,2.866,30.627,30.627,0,0,1-32.569-1.985,28.277,28.277,0,0,1-3.948-3.37c-.438-.429-.733-.806-.948-1.045a1.8,1.8,0,0,1-.3-.392,17.541,17.541,0,0,1,1.388,1.292,32.819,32.819,0,0,0,4.017,3.212,31.127,31.127,0,0,0,32.187,1.962,32.894,32.894,0,0,0,4.378-2.7A17.612,17.612,0,0,1,653.625,263.806Z" fill="#fff"/>
          </g>
          <g id="Group_108" data-name="Group 108">
            <path id="Path_104" data-name="Path 104" d="M691.376,322.393s-.126-.137-.349-.419l-.982-1.257a39.043,39.043,0,0,0-4.1-4.541l-1.573-1.4-.847-.753-.954-.7q-.977-.72-2.033-1.5l-2.326-1.433a47.354,47.354,0,0,0-11.787-4.918,45.235,45.235,0,0,0-15.388-1.343,41.878,41.878,0,0,0-16.862,5.222c-5.465,3.1-10.57,7.337-16.016,11.5a83.875,83.875,0,0,1-8.645,5.929,38.388,38.388,0,0,1-9.96,4.187,33.881,33.881,0,0,1-10.77.871,48.2,48.2,0,0,1-10.309-1.963,103.252,103.252,0,0,1-18.188-7.8c-5.6-2.893-10.89-5.7-16.07-7.809a53.8,53.8,0,0,0-14.945-4.017,36.554,36.554,0,0,0-12.7.959,26.916,26.916,0,0,0-8.768,3.944,23.506,23.506,0,0,0-4.494,4.12l-.954,1.276c-.217.286-.34.426-.34.426s.093-.159.3-.456l.916-1.311a22.629,22.629,0,0,1,4.459-4.22,26.839,26.839,0,0,1,8.81-4.06,36.619,36.619,0,0,1,12.809-1.045,53.894,53.894,0,0,1,15.073,3.984c5.215,2.1,10.528,4.9,16.127,7.782a103.42,103.42,0,0,0,18.114,7.735,47.854,47.854,0,0,0,10.2,1.935,33.4,33.4,0,0,0,10.606-.859,37.95,37.95,0,0,0,9.827-4.13,83.669,83.669,0,0,0,8.6-5.887c5.437-4.151,10.567-8.394,16.089-11.516a38.654,38.654,0,0,1,4.214-2.052c.714-.294,1.41-.621,2.124-.88l2.164-.679a42.887,42.887,0,0,1,8.56-1.623,45.429,45.429,0,0,1,15.518,1.417,47.279,47.279,0,0,1,11.842,5.024l2.329,1.46,2.032,1.53.953.718.845.765,1.565,1.422a36.512,36.512,0,0,1,4.042,4.623l.941,1.291C691.28,322.236,691.376,322.393,691.376,322.393Z" fill="#fff"/>
          </g>
          <g id="Group_109" data-name="Group 109">
            <path id="Path_105" data-name="Path 105" d="M667.324,368a1.952,1.952,0,0,1-.484.2l-1.422.488a22.339,22.339,0,0,1-2.282.671c-.9.221-1.918.522-3.073.71l-1.8.337c-.628.113-1.29.171-1.972.263-1.361.2-2.831.268-4.375.367a55,55,0,0,1-19.823-2.842c-1.454-.528-2.847-1-4.1-1.582-.629-.279-1.248-.521-1.819-.806l-1.637-.83c-1.056-.505-1.946-1.079-2.749-1.545a22.221,22.221,0,0,1-2-1.285l-1.228-.867a.264.264,0,1,1,.06-.086l1.278.783c.547.353,1.222.772,2.039,1.2s1.71.988,2.769,1.467l1.639.795c.572.273,1.191.5,1.818.773,1.246.557,2.633,1.012,4.079,1.523a56.977,56.977,0,0,0,19.655,2.818c1.531-.085,2.99-.131,4.343-.316.677-.082,1.336-.13,1.961-.231l1.8-.3c1.151-.163,2.166-.437,3.069-.631s1.672-.4,2.295-.582l1.447-.393A2.009,2.009,0,0,1,667.324,368Z" fill="#fff"/>
          </g>
        </g>
      </g>
      <g id="Group_212" data-name="Group 212">
        <g id="Group_209" data-name="Group 209">
          <g id="Group_114" data-name="Group 114">
            <path id="Path_106" data-name="Path 106" d="M459.078,221.536l-7-1.1L408.7,206.452l-25.365-7.329a27.289,27.289,0,0,0-21.948,1.493c-11.982,6.108-45.055,36.885-45.055,36.885l23.811,24.548-11.216,49.68c12.552,35.684,37.123,39.772,37.123,39.772a87.113,87.113,0,0,0,35.2-5.819c22.818-8.7,46.772-29.094,49.771-37.863,1.8-5.264,3.285-16.317,4.468-28.808l36.124-14.725,9.788-49.968Z" fill="#455a64"/>
            <g id="Group_112" data-name="Group 112">
              <path id="Path_107" data-name="Path 107" d="M406.321,309.973c.01.014-.11.121-.351.31s-.59.479-1.08.792a24.524,24.524,0,0,1-4.343,2.334,26.487,26.487,0,0,1-29.96-6.544,24.554,24.554,0,0,1-2.974-3.931c-.315-.489-.5-.9-.651-1.17a1.581,1.581,0,0,1-.19-.428,16.1,16.1,0,0,1,1.012,1.488,28.248,28.248,0,0,0,3.071,3.789,26.818,26.818,0,0,0,29.554,6.454,28.277,28.277,0,0,0,4.372-2.162A16.283,16.283,0,0,1,406.321,309.973Z" fill="#263238"/>
            </g>
            <g id="Group_113" data-name="Group 113">
              <path id="Path_108" data-name="Path 108" d="M392.6,208.513a.9.9,0,0,1,.078.238c.048.189.106.422.177.708.152.624.36,1.547.614,2.739A66.506,66.506,0,0,1,394.9,222.43a32.409,32.409,0,0,1-.41,7.144,22.991,22.991,0,0,1-2.85,7.7,30.516,30.516,0,0,1-5.93,6.869c-2.352,2.1-4.954,4.048-7.6,6.059-5.634,4.236-11.123,8.065-16.028,11.541s-9.234,6.6-12.694,9.216l-.111.083-.105-.085a76.008,76.008,0,0,1-6.945-6.25,19.5,19.5,0,0,1-1.626-1.919,6.308,6.308,0,0,1-.354-.547.734.734,0,0,1-.1-.2,8.435,8.435,0,0,1,.535.684,24.394,24.394,0,0,0,1.684,1.845,85.362,85.362,0,0,0,7.026,6.107h-.216c3.434-2.663,7.735-5.832,12.632-9.324s10.367-7.341,15.991-11.57c2.643-2.008,5.243-3.953,7.574-6.023a30.289,30.289,0,0,0,5.86-6.738,22.7,22.7,0,0,0,2.835-7.533,32.51,32.51,0,0,0,.467-7.051,72.532,72.532,0,0,0-1.26-10.208q-.327-1.746-.517-2.756c-.051-.291-.093-.527-.127-.719A.934.934,0,0,1,392.6,208.513Z" fill="#263238"/>
            </g>
          </g>
          <g id="Group_120" data-name="Group 120">
            <path id="Path_109" data-name="Path 109" d="M580.926,231.026c10.158-8.7,13.592-24.371,8.007-36.527l-14.3-1.476a20.407,20.407,0,0,0,10.4-20.585,27.305,27.305,0,0,1-31.23,5.751c-6.683-3.3-12.1-9.452-19.439-10.742-6.662-1.17-13.213,1.954-19.586,4.22s-14.1,3.516-19.384-.713c-4.185-3.352-5.483-9.225-5.21-14.58s1.82-10.58,2.151-15.932a36.194,36.194,0,0,0-11.586-28.218,27.46,27.46,0,0,0-43.112-13.712c-3.128,2.423-5.772,5.545-9.319,7.3-4.006,1.981-8.669,1.978-13.008,3.048s-8.892,3.942-9.358,8.386l-1.746,9.111c-.294.653-.6,1.3-.959,1.92-3.687,6.467-11.227,10.719-12.874,17.978-.923,4.071.223,8.477-1.149,12.419-1.806,5.187-7.407,8.106-10.017,12.939-3.582,6.637-1.151,18.263,4.576,23.171s17.545,10.1,24.922,11.669c2-7.669,3.766-15.868,5.483-24.261,3.009,2.887,6.162,5.644,9.3,8.369,8.219,7.136,16.605,14.39,22.305,23.664,10.832,17.623,11.014,40.978,24.649,56.534,2.673,3.051,5.918,5.766,9.8,6.941s8.481.555,11.353-2.309c3.387-3.379,3.825-9.077,7.574-12.049,4.982-3.951,12.262-.8,17.618,2.627,3.877,2.48,7.753,5.1,12.15,6.463s9.505,1.271,13.245-1.412,5.382-8.4,2.685-12.128c-1.079-1.491-2.692-2.532-3.761-4.03s-1.381-3.869.084-4.984c1.617-1.232,3.883-.043,5.635.988a33.512,33.512,0,0,0,48.734-18.124A27.83,27.83,0,0,1,580.926,231.026Z" fill="#263238"/>
            <g id="Group_115" data-name="Group 115">
              <path id="Path_110" data-name="Path 110" d="M572.021,152.547a11.98,11.98,0,0,1,1.294,1.106,15.093,15.093,0,0,1,2.945,3.891,11.087,11.087,0,0,1,1.1,3.37,7.874,7.874,0,0,1-.486,4.18,7.958,7.958,0,0,1-3.074,3.73,6.011,6.011,0,0,1-2.523.908,5.736,5.736,0,0,1-2.8-.407c-3.712-1.512-5.574-5.8-9.589-7.713-3.911-2.069-8.911-2.21-13.715-1.111-4.858,1.112-9.484,3.712-14.215,6.368s-9.762,5.507-15.552,6.5a21.812,21.812,0,0,1-8.6-.059,16.644,16.644,0,0,1-3.979-1.478,15.46,15.46,0,0,1-3.357-2.487,18.978,18.978,0,0,1-4.306-6.816,30.905,30.905,0,0,1-1.764-7.524c-.53-5.022-.111-9.792-.062-14.23a41.754,41.754,0,0,0-1.213-12.217,28.084,28.084,0,0,0-1.908-5.008,28.826,28.826,0,0,0-2.424-4.126,30.689,30.689,0,0,0-5.116-5.7,33.184,33.184,0,0,0-3.907-2.884l-1.09-.645a2.74,2.74,0,0,1-.363-.235,2.66,2.66,0,0,1,.389.188l1.118.6a29.734,29.734,0,0,1,9.207,8.51,28.98,28.98,0,0,1,2.483,4.147,28.283,28.283,0,0,1,1.965,5.054,41.9,41.9,0,0,1,1.291,12.324c-.032,4.453-.431,9.219.107,14.17a30.535,30.535,0,0,0,1.752,7.4,18.471,18.471,0,0,0,4.2,6.629,14.875,14.875,0,0,0,3.244,2.4,16.143,16.143,0,0,0,3.848,1.426,21.341,21.341,0,0,0,8.4.051c5.681-.973,10.663-3.791,15.393-6.433s9.4-5.268,14.357-6.391a24.94,24.94,0,0,1,7.328-.619,19.469,19.469,0,0,1,3.495.565,15.911,15.911,0,0,1,3.2,1.25c4.146,2.033,6.014,6.339,9.526,7.755a5.368,5.368,0,0,0,5.009-.441,7.727,7.727,0,0,0,3.489-7.6,11,11,0,0,0-1.035-3.312,15.6,15.6,0,0,0-2.838-3.907c-.389-.4-.7-.689-.91-.879A2.7,2.7,0,0,1,572.021,152.547Z" fill="#263238"/>
            </g>
            <g id="Group_116" data-name="Group 116">
              <path id="Path_111" data-name="Path 111" d="M408.553,210.271s-.037-.153-.083-.452a8.038,8.038,0,0,0-.267-1.312,11.227,11.227,0,0,0-2.456-4.461,19.089,19.089,0,0,0-6.631-4.609c-2.9-1.324-6.493-1.974-10.439-2.715-3.91-.769-8.4-1.583-12.423-4.265a18.445,18.445,0,0,1-2.94-28.112c4.138-4.248,9.99-6.352,14.773-10.088a18.7,18.7,0,0,0,3.147-3.2,13.243,13.243,0,0,0,1.919-3.956c.794-2.839.729-5.811,1-8.7a19.409,19.409,0,0,1,.8-4.271,10.7,10.7,0,0,1,2.106-3.735,14.99,14.99,0,0,1,7.154-3.984c2.571-.746,5.124-1.211,7.54-1.877a20.544,20.544,0,0,0,6.583-2.945,25.3,25.3,0,0,0,4.938-4.619A55.219,55.219,0,0,0,427,111.9c2.209-3.347,4.1-6.473,6.113-8.971a28.879,28.879,0,0,1,5.834-5.757,16.2,16.2,0,0,1,4.6-2.369,11.16,11.16,0,0,1,1.753-.441c.009.036-.607.15-1.719.541a16.737,16.737,0,0,0-4.519,2.433,29.155,29.155,0,0,0-5.723,5.772c-1.979,2.5-3.837,5.622-6.035,9a55.239,55.239,0,0,1-3.722,5.117,25.618,25.618,0,0,1-5,4.716,20.955,20.955,0,0,1-6.707,3.031c-2.438.68-4.993,1.154-7.526,1.9a14.532,14.532,0,0,0-6.919,3.854,10.181,10.181,0,0,0-2,3.561,18.932,18.932,0,0,0-.772,4.161c-.268,2.854-.191,5.85-1.009,8.8a13.768,13.768,0,0,1-2,4.122,19.2,19.2,0,0,1-3.243,3.3,68.657,68.657,0,0,1-7.689,4.886,33.253,33.253,0,0,0-7.042,5.15,17.993,17.993,0,0,0,2.816,27.4c3.907,2.634,8.346,3.471,12.25,4.26,3.933.763,7.559,1.445,10.487,2.811a19.112,19.112,0,0,1,6.666,4.742,11.062,11.062,0,0,1,2.4,4.568,6.928,6.928,0,0,1,.217,1.332C408.552,210.115,408.553,210.271,408.553,210.271Z" fill="#263238"/>
            </g>
            <g id="Group_117" data-name="Group 117">
              <path id="Path_112" data-name="Path 112" d="M488.395,120.5a2.382,2.382,0,0,1-.769-.2,18.072,18.072,0,0,1-2-.808,26.321,26.321,0,0,1-10.684-9.192,17.816,17.816,0,0,1-1.1-1.856,2.32,2.32,0,0,1-.308-.731c.075-.042.64.926,1.706,2.376a30.78,30.78,0,0,0,10.546,9.074C487.383,120,488.425,120.419,488.395,120.5Z" fill="#455a64"/>
            </g>
            <g id="Group_118" data-name="Group 118">
              <path id="Path_113" data-name="Path 113" d="M521.636,188.706c-.015.046-.627-.154-1.758-.4a28.925,28.925,0,0,0-4.853-.6,64.29,64.29,0,0,0-7.267.206c-2.735.193-5.756.472-8.948.4a24.365,24.365,0,0,1-8.826-1.659,15.619,15.619,0,0,1-5.92-4.324,11.124,11.124,0,0,1-2.276-4.388,7.845,7.845,0,0,1-.21-1.331,1.578,1.578,0,0,1-.008-.47c.061-.007.09.642.414,1.748a11.568,11.568,0,0,0,2.361,4.2,15.629,15.629,0,0,0,5.824,4.118,24.507,24.507,0,0,0,8.654,1.581c3.151.069,6.159-.193,8.9-.361a58.263,58.263,0,0,1,7.319-.1,25,25,0,0,1,4.88.766c.563.158.995.294,1.281.408A1.593,1.593,0,0,1,521.636,188.706Z" fill="#455a64"/>
            </g>
            <g id="Group_119" data-name="Group 119">
              <path id="Path_114" data-name="Path 114" d="M580.572,234.18a1.445,1.445,0,0,1-.29.131,4.361,4.361,0,0,1-.892.285,7.012,7.012,0,0,1-3.581-.16,11.484,11.484,0,0,1-4.8-3.034,19.954,19.954,0,0,1-3.856-6.468c-1.093-2.561-2.005-5.508-3.79-8.224a21.573,21.573,0,0,0-3.175-3.874,25.661,25.661,0,0,0-4.242-3.208c-6.28-3.785-14.528-5.335-22.951-4.843-8.467.445-16.435,2.1-23.8,2.62a47.076,47.076,0,0,1-19.406-2.005,26.8,26.8,0,0,1-11.122-6.969,15.1,15.1,0,0,1-1.331-1.594,9.565,9.565,0,0,1-.865-1.249c-.2-.331-.361-.6-.486-.8a1.452,1.452,0,0,1-.149-.28,1.4,1.4,0,0,1,.2.253l.527.768a10.544,10.544,0,0,0,.9,1.213,15.836,15.836,0,0,0,1.357,1.549,27.089,27.089,0,0,0,11.093,6.759,47.159,47.159,0,0,0,19.251,1.875c7.329-.536,15.289-2.212,23.816-2.661,8.493-.5,16.849,1.079,23.226,4.953a26.052,26.052,0,0,1,4.31,3.288,21.915,21.915,0,0,1,3.221,3.972c1.808,2.792,2.7,5.762,3.767,8.316a19.82,19.82,0,0,0,3.725,6.406,11.4,11.4,0,0,0,4.649,3.042,7.143,7.143,0,0,0,3.5.252C580.168,234.345,580.558,234.139,580.572,234.18Z" fill="#455a64"/>
            </g>
          </g>
          <g id="Group_190" data-name="Group 190">
            <g id="Group_188" data-name="Group 188">
              <g id="Group_187" data-name="Group 187">
                <g id="Group_186" data-name="Group 186">
                  <g id="Group_185" data-name="Group 185">
                    <g id="Group_170" data-name="Group 170">
                      <g id="Group_169" data-name="Group 169">
                        <g id="Group_168" data-name="Group 168">
                          <g id="Group_127" data-name="Group 127">
                            <g id="Group_126" data-name="Group 126">
                              <g id="Group_125" data-name="Group 125">
                                <g id="Group_124" data-name="Group 124">
                                  <g id="Group_123" data-name="Group 123">
                                    <g id="Group_122" data-name="Group 122">
                                      <g id="Group_121" data-name="Group 121">
                                        <path id="Path_115" data-name="Path 115" d="M423.286,120.494a7.475,7.475,0,0,0-7.621,6.643h0l-8.088,84.214c-1.4,11.841,14.09,37.229,26.781,38.629h0c12.816,1.414,14.068-4.8,15.734-16.017,2.783-18.747,3.7-25.8,3.7-25.692,0,0,16.5-.554,22.623-21.184,3.044-10.259,4.781-27.509,5.746-41.67.868-12.745-5.464-29.357-18.234-29.683Z" fill="#ffbe9d"/>
                                      </g>
                                    </g>
                                  </g>
                                </g>
                              </g>
                            </g>
                          </g>
                          <g id="Group_143" data-name="Group 143">
                            <g id="Group_134" data-name="Group 134">
                              <g id="Group_133" data-name="Group 133">
                                <g id="Group_132" data-name="Group 132">
                                  <g id="Group_131" data-name="Group 131">
                                    <g id="Group_130" data-name="Group 130">
                                      <g id="Group_129" data-name="Group 129">
                                        <g id="Group_128" data-name="Group 128">
                                          <path id="Path_116" data-name="Path 116" d="M476.583,156.59a2.726,2.726,0,0,1-2.965,2.383,2.607,2.607,0,0,1-2.465-2.8,2.726,2.726,0,0,1,2.962-2.385A2.609,2.609,0,0,1,476.583,156.59Z" fill="#263238"/>
                                        </g>
                                      </g>
                                    </g>
                                  </g>
                                </g>
                              </g>
                            </g>
                            <g id="Group_142" data-name="Group 142">
                              <g id="Group_141" data-name="Group 141">
                                <g id="Group_140" data-name="Group 140">
                                  <g id="Group_139" data-name="Group 139">
                                    <g id="Group_138" data-name="Group 138">
                                      <g id="Group_137" data-name="Group 137">
                                        <g id="Group_136" data-name="Group 136">
                                          <g id="Group_135" data-name="Group 135">
                                            <path id="Path_117" data-name="Path 117" d="M477.726,151.142c-.312.378-2.478-1-5.4-.792-2.925.169-4.967,1.823-5.31,1.487-.167-.148.132-.812,1.02-1.557a7.475,7.475,0,0,1,4.22-1.629,7.177,7.177,0,0,1,4.332,1.073C477.532,150.352,477.881,150.972,477.726,151.142Z" fill="#263238"/>
                                          </g>
                                        </g>
                                      </g>
                                    </g>
                                  </g>
                                </g>
                              </g>
                            </g>
                          </g>
                          <g id="Group_152" data-name="Group 152">
                            <g id="Group_151" data-name="Group 151">
                              <g id="Group_150" data-name="Group 150">
                                <g id="Group_149" data-name="Group 149">
                                  <g id="Group_148" data-name="Group 148">
                                    <g id="Group_147" data-name="Group 147">
                                      <g id="Group_146" data-name="Group 146">
                                        <g id="Group_145" data-name="Group 145">
                                          <g id="Group_144" data-name="Group 144">
                                            <path id="Path_118" data-name="Path 118" d="M450.852,158.111c-.348.346-2.372-1.24-5.3-1.315-2.927-.117-5.122,1.33-5.429.962-.152-.163.207-.795,1.167-1.45a7.484,7.484,0,0,1,4.358-1.211,7.194,7.194,0,0,1,4.207,1.491C450.733,157.306,451.022,157.957,450.852,158.111Z" fill="#263238"/>
                                          </g>
                                        </g>
                                      </g>
                                    </g>
                                  </g>
                                </g>
                              </g>
                            </g>
                          </g>
                          <g id="Group_160" data-name="Group 160">
                            <g id="Group_159" data-name="Group 159">
                              <g id="Group_158" data-name="Group 158">
                                <g id="Group_157" data-name="Group 157">
                                  <g id="Group_156" data-name="Group 156">
                                    <g id="Group_155" data-name="Group 155">
                                      <g id="Group_154" data-name="Group 154">
                                        <g id="Group_153" data-name="Group 153">
                                          <path id="Path_119" data-name="Path 119" d="M456.313,173.6c.008-.167,1.857-.242,4.835-.23.753.02,1.475-.035,1.667-.524a3.805,3.805,0,0,0-.206-2.267q-.691-2.832-1.451-5.943c-1.989-8.451-3.324-15.361-2.984-15.439s2.231,6.711,4.219,15.163q.709,3.122,1.355,5.965a4.329,4.329,0,0,1,0,2.964,1.875,1.875,0,0,1-1.364.925,5.03,5.03,0,0,1-1.284.009C458.133,173.991,456.3,173.763,456.313,173.6Z" fill="#263238"/>
                                        </g>
                                      </g>
                                    </g>
                                  </g>
                                </g>
                              </g>
                            </g>
                          </g>
                          <g id="Group_167" data-name="Group 167">
                            <g id="Group_166" data-name="Group 166">
                              <g id="Group_165" data-name="Group 165">
                                <g id="Group_164" data-name="Group 164">
                                  <g id="Group_163" data-name="Group 163">
                                    <g id="Group_162" data-name="Group 162">
                                      <g id="Group_161" data-name="Group 161">
                                        <path id="Path_120" data-name="Path 120" d="M453.79,208.271a54.064,54.064,0,0,1-27.227-11.244s5.21,15.425,26.559,16.231Z" fill="#eb996e"/>
                                      </g>
                                    </g>
                                  </g>
                                </g>
                              </g>
                            </g>
                          </g>
                        </g>
                      </g>
                    </g>
                    <g id="Group_177" data-name="Group 177">
                      <g id="Group_176" data-name="Group 176">
                        <g id="Group_175" data-name="Group 175">
                          <g id="Group_174" data-name="Group 174">
                            <g id="Group_173" data-name="Group 173">
                              <g id="Group_172" data-name="Group 172">
                                <g id="Group_171" data-name="Group 171">
                                  <path id="Path_121" data-name="Path 121" d="M451.261,153.1c-.463.711-3.229-.324-6.673-.705-3.438-.449-6.369-.1-6.651-.9-.12-.38.522-1,1.79-1.5a11.664,11.664,0,0,1,10.151,1.223C450.992,152,451.468,152.759,451.261,153.1Z" fill="#263238"/>
                                </g>
                              </g>
                            </g>
                          </g>
                        </g>
                      </g>
                    </g>
                    <g id="Group_184" data-name="Group 184">
                      <g id="Group_183" data-name="Group 183">
                        <g id="Group_182" data-name="Group 182">
                          <g id="Group_181" data-name="Group 181">
                            <g id="Group_180" data-name="Group 180">
                              <g id="Group_179" data-name="Group 179">
                                <g id="Group_178" data-name="Group 178">
                                  <path id="Path_122" data-name="Path 122" d="M477.293,147.212c-.481.691-2.535.1-4.963.2-2.431.006-4.458.676-4.966,0-.225-.328.065-1.01.93-1.686a7.193,7.193,0,0,1,8-.161C477.187,146.205,477.5,146.876,477.293,147.212Z" fill="#263238"/>
                                </g>
                              </g>
                            </g>
                          </g>
                        </g>
                      </g>
                    </g>
                  </g>
                </g>
              </g>
            </g>
            <path id="Path_123" data-name="Path 123" d="M449.233,178.906a6.253,6.253,0,0,1,4.583-.957,3.58,3.58,0,0,1,2.135,1.109,4.516,4.516,0,0,1,.745,3.056,6.009,6.009,0,0,1-.285,1.9,2.472,2.472,0,0,1-1.222,1.43,3.384,3.384,0,0,1-1.956.1,7.648,7.648,0,0,1-3.09-1.118,3.835,3.835,0,0,1-1.725-2.7,2.592,2.592,0,0,1,1.547-2.661" fill="#eb996e"/>
            <g id="Group_189" data-name="Group 189">
              <path id="Path_124" data-name="Path 124" d="M457.124,185.333c-.216.075-.6-.561-1.3-1.437a10.683,10.683,0,0,0-7.26-4.138c-1.113-.158-1.855-.165-1.9-.388-.045-.2.653-.591,1.919-.717a8.4,8.4,0,0,1,8.181,4.663C457.3,184.469,457.315,185.272,457.124,185.333Z" fill="#263238"/>
            </g>
          </g>
          <path id="Path_125" data-name="Path 125" d="M406.454,205.555c6.943-1.38,12.3-7.353,14.693-14.016s2.267-13.952,1.631-21a3.382,3.382,0,0,0-.951-2.481c-1.052-.81-2.56-.15-3.693.541a117.182,117.182,0,0,0-12.576,8.844c-3.717,3-7.4,6.448-8.829,11-2.189,6.992,2.443,15.342,9.533,17.186" fill="#263238"/>
          <g id="Group_198" data-name="Group 198">
            <path id="Path_126" data-name="Path 126" d="M566.205,203.929l-32.78-52.683-9.053-18.538s-2.887-3.828-5.889-7.1c-4.927-5.37-9.79-1.2-9.79-1.2a3.324,3.324,0,0,0-3.29-2.029,5.6,5.6,0,0,0-4.532,2.31s-1.34-1.492-5.06-1.722a3.906,3.906,0,0,0-2.356.761c-1.215-1.071-3.455-2.616-5.606-1.832-1.681.613-11.871,8.36-14.38,12.261-1.239,1.927,1.065,4.432,4.162,3.259a26.92,26.92,0,0,0,3.717-1.513,10.085,10.085,0,0,0,2.52-2.026s-2.569,4.5-.007,5.292A5.892,5.892,0,0,0,488.685,138c.976-.826,2.109-1.9,3.177-2.942-.042.06-.086.119-.126.178-1.42,2.1,2.283,5.212,4.077,3.948a26.9,26.9,0,0,0,2.392-1.893c4.16,3.019-1.618,6.888-4.057,6.689a75.316,75.316,0,0,0-11.28-.037c-2.122.178-4.015.68-5.157,1.856-1.376,1.417.066,4.4,2.019,4.7,3.589.554,8.167,1.352,12.929,2.577,5.605,1.443,20.269,6.208,20.269,6.208l1.43,1.165,19.936,48.61-34.128,7.227-7.619,43.237,61.6-16.712C568.033,235.6,574.606,217.128,566.205,203.929Z" fill="#ffbe9d"/>
            <g id="Group_191" data-name="Group 191">
              <path id="Path_127" data-name="Path 127" d="M512.929,159.288a4.586,4.586,0,0,1-.782-.186l-2.212-.63-8.1-2.411-5.589-1.688c-2.005-.619-4.153-1.261-6.436-1.841a61.235,61.235,0,0,0-7.217-1.492,12.549,12.549,0,0,1-3.916-.706,2.75,2.75,0,0,1-.88-.656,1.493,1.493,0,0,1-.3-.535l-.077-.534a5.152,5.152,0,0,1,.131-2.123,2.934,2.934,0,0,1,1.417-1.641,10.892,10.892,0,0,1,1.908-.757,12.813,12.813,0,0,1,3.954-.485c2.6.035,5.049.394,7.391.3a23.756,23.756,0,0,0,3.394-.333c1.088-.2,2.132-.482,3.15-.744a16.721,16.721,0,0,1,5.826-.742,15.864,15.864,0,0,1,4.7,1.2,29.617,29.617,0,0,1,3.277,1.609c.873.489,1.532.9,1.979,1.175a4.521,4.521,0,0,1,.665.451,4.648,4.648,0,0,1-.717-.361l-2.024-1.087a32.357,32.357,0,0,0-3.288-1.516,15.826,15.826,0,0,0-4.619-1.1,16.537,16.537,0,0,0-5.69.793c-1.012.27-2.063.566-3.176.776a23.8,23.8,0,0,1-3.462.363c-2.386.108-4.868-.243-7.408-.269a12.38,12.38,0,0,0-3.792.468c-1.223.4-2.618.833-2.991,2.069a4.661,4.661,0,0,0-.108,1.9l.063.464a1.023,1.023,0,0,0,.193.332,2.244,2.244,0,0,0,.712.524,12.41,12.41,0,0,0,3.751.665,60.306,60.306,0,0,1,7.273,1.534c2.29.6,4.436,1.253,6.437,1.89l5.572,1.751,8.059,2.569,2.183.724A4.728,4.728,0,0,1,512.929,159.288Z" fill="#eb996e"/>
            </g>
            <g id="Group_192" data-name="Group 192">
              <path id="Path_128" data-name="Path 128" d="M487.665,121.979c.051.083-1.545,1.008-3.9,2.8a40.511,40.511,0,0,0-3.922,3.4c-1.4,1.364-2.872,2.96-4.606,4.449a4.8,4.8,0,0,0-1.846,2.469,1.744,1.744,0,0,0,1.208,2.143,5.238,5.238,0,0,0,2.638.052,12.724,12.724,0,0,0,2.3-.658,16.856,16.856,0,0,0,4.058-2.464,4.272,4.272,0,0,1-.9.934,11.747,11.747,0,0,1-3.016,1.87,12.359,12.359,0,0,1-2.352.741,5.579,5.579,0,0,1-2.876-.021,2.231,2.231,0,0,1-1.553-2.7,5.227,5.227,0,0,1,2.006-2.759c1.709-1.467,3.182-3.041,4.613-4.4a35.882,35.882,0,0,1,4.037-3.346c1.214-.869,2.248-1.493,2.968-1.911A6.172,6.172,0,0,1,487.665,121.979Z" fill="#eb996e"/>
            </g>
            <g id="Group_193" data-name="Group 193">
              <path id="Path_129" data-name="Path 129" d="M500.166,126.117a11.879,11.879,0,0,1-1.155,1.377c-.835.917-1.945,2.139-3.292,3.62l-4.93,5.322a11.912,11.912,0,0,1-3.463,2.642,5.286,5.286,0,0,1-2.291.572,3.19,3.19,0,0,1-2.3-.92,2.233,2.233,0,0,1-.546-1.248,3.848,3.848,0,0,1,.134-1.285,7.565,7.565,0,0,1,1.059-2.186l.008-.011.018-.019c1.763-1.874,3.4-3.633,4.879-5.251,1.5-1.593,2.941-2.892,4.113-4a8.387,8.387,0,0,1,1.71-1.378,4.205,4.205,0,0,1,1.619-.351c.882-.062,1.4.018,1.36.113a4.24,4.24,0,0,0-1.343.064,4.315,4.315,0,0,0-1.512.4,8.578,8.578,0,0,0-1.606,1.39c-1.143,1.139-2.553,2.462-4.016,4.061-1.436,1.618-3.078,3.413-4.842,5.307l.025-.03a7.084,7.084,0,0,0-.972,2.023,3.314,3.314,0,0,0-.116,1.1,1.7,1.7,0,0,0,.414.951,2.7,2.7,0,0,0,1.922.752,4.817,4.817,0,0,0,2.071-.516,11.621,11.621,0,0,0,3.327-2.505l5.013-5.248,3.413-3.508.947-.936C500.031,126.209,500.153,126.105,500.166,126.117Z" fill="#eb996e"/>
            </g>
            <g id="Group_194" data-name="Group 194">
              <path id="Path_130" data-name="Path 130" d="M515.486,130.943c.052.038-.046.3-.4.583a2.118,2.118,0,0,1-3.079-.538c-.233-.38-.236-.664-.174-.682s.2.192.464.455a2.184,2.184,0,0,0,2.593.453C515.234,131.056,515.426,130.893,515.486,130.943Z" fill="#eb996e"/>
            </g>
            <g id="Group_195" data-name="Group 195">
              <path id="Path_131" data-name="Path 131" d="M516.687,135.53c-.109.088-.86-.665-1.52-1.785a4.272,4.272,0,0,1-.831-2.192c.135-.057.636.843,1.279,1.927S516.8,135.438,516.687,135.53Z" fill="#eb996e"/>
            </g>
            <g id="Group_196" data-name="Group 196">
              <path id="Path_132" data-name="Path 132" d="M518.9,153.41a6.67,6.67,0,0,1-.947-2.082,17.089,17.089,0,0,1,.145-10.912,6.7,6.7,0,0,1,1-2.057,26.89,26.89,0,0,0-1.448,7.508A26.892,26.892,0,0,0,518.9,153.41Z" fill="#eb996e"/>
            </g>
            <g id="Group_197" data-name="Group 197">
              <path id="Path_133" data-name="Path 133" d="M545.817,222.7c-.1.011-.2-1.062-.718-2.689a16.3,16.3,0,0,0-1.182-2.745,16.509,16.509,0,0,0-4.792-5.457,16.439,16.439,0,0,0-2.57-1.527c-1.546-.728-2.6-.964-2.573-1.059a2.12,2.12,0,0,1,.752.1,10.5,10.5,0,0,1,1.97.624,14.419,14.419,0,0,1,2.7,1.472,15.54,15.54,0,0,1,4.938,5.622,14.385,14.385,0,0,1,1.111,2.867,10.534,10.534,0,0,1,.365,2.034A2.139,2.139,0,0,1,545.817,222.7Z" fill="#eb996e"/>
            </g>
          </g>
          <g id="Group_204" data-name="Group 204">
            <path id="Path_134" data-name="Path 134" d="M431.439,319.01a14.2,14.2,0,0,0-8.325,1.061c-4.454-1.971-9.94,1.429-9.94,1.429-1.612-.77-11.312,5.567-11.312,5.567l-12.085,5.7-64.531-47.945L343.539,265.8,317.91,239.127l-30.045,30.905a22.7,22.7,0,0,0-5.989,14.546,29.6,29.6,0,0,0,16.437,28.043l76.035,39a88.77,88.77,0,0,0,17.288-2.688c6.56-1.713,17.771-6.689,17.771-6.689s-.031.34,1.974,4.225c3.607,6.992,8.9-.552,8.9-.552a14.4,14.4,0,0,0,2.052,3.415c4.569,4.431,7.738-1.52,7.738-1.52s1.372,2.387,5.457.613-.589-14.062-.589-14.062,1.368,2.672,4.021-.71S435.811,319.92,431.439,319.01Z" fill="#ffbe9d"/>
            <g id="Group_199" data-name="Group 199">
              <path id="Path_135" data-name="Path 135" d="M422.311,320.685a2.13,2.13,0,0,1,.836-.322,4.963,4.963,0,0,1,2.449.073,9.481,9.481,0,0,1,3.233,1.653,12.494,12.494,0,0,1,1.608,1.435,9.13,9.13,0,0,1,1.258,1.954,48.883,48.883,0,0,1,2.955,7.408c.3.977.5,1.776.627,2.333a2.907,2.907,0,0,1,.137.88A31.968,31.968,0,0,1,434.3,333a66.42,66.42,0,0,0-3.069-7.288,8.955,8.955,0,0,0-1.178-1.852,12.771,12.771,0,0,0-1.516-1.392,9.712,9.712,0,0,0-3.041-1.678A6.685,6.685,0,0,0,422.311,320.685Z" fill="#eb996e"/>
            </g>
            <g id="Group_200" data-name="Group 200">
              <path id="Path_136" data-name="Path 136" d="M430.075,347.81a5.876,5.876,0,0,1-.562-1.108c-.378-.821-.851-1.846-1.413-3.064-1.188-2.589-2.93-6.124-4.594-10.159a26.825,26.825,0,0,0-2.626-5.465,9.034,9.034,0,0,0-3.71-3.1,6,6,0,0,0-3.2-.572c-.775.1-1.175.313-1.2.262-.008-.016.087-.073.277-.169a3.353,3.353,0,0,1,.886-.293,5.864,5.864,0,0,1,3.382.434,9.172,9.172,0,0,1,3.956,3.155,25.693,25.693,0,0,1,2.717,5.546c1.654,4.011,3.344,7.573,4.448,10.206.559,1.314.988,2.387,1.264,3.137A5.488,5.488,0,0,1,430.075,347.81Z" fill="#eb996e"/>
            </g>
            <g id="Group_201" data-name="Group 201">
              <path id="Path_137" data-name="Path 137" d="M400.46,332.382a5.185,5.185,0,0,1,1.029-.574l2.885-1.389c.618-.285,1.266-.607,2.018-.93a5.652,5.652,0,0,1,2.592-.377,5.389,5.389,0,0,1,2.711,1.036,8.589,8.589,0,0,1,1.986,2.366c.547.895.977,1.822,1.4,2.688s.868,1.689,1.3,2.467c.871,1.555,1.69,2.946,2.3,4.162a24.428,24.428,0,0,1,1.281,2.948,4.513,4.513,0,0,1,.321,1.136c-.087.032-.625-1.557-1.928-3.912-.642-1.183-1.489-2.546-2.388-4.1-.448-.776-.9-1.6-1.341-2.477s-.861-1.778-1.391-2.644a8.3,8.3,0,0,0-1.848-2.23,4.967,4.967,0,0,0-2.452-.965,5.286,5.286,0,0,0-2.389.3c-.715.287-1.4.6-2.022.863l-2.953,1.238A5.077,5.077,0,0,1,400.46,332.382Z" fill="#eb996e"/>
            </g>
            <g id="Group_202" data-name="Group 202">
              <path id="Path_138" data-name="Path 138" d="M401.862,327.067a4.066,4.066,0,0,1-.882.558c-.583.329-1.434.79-2.491,1.349-2.114,1.119-5.05,2.632-8.307,4.275s-6.222,3.1-8.379,4.138c-1.078.516-1.955.926-2.566,1.2a3.924,3.924,0,0,1-.974.375,4.147,4.147,0,0,1,.883-.556c.583-.328,1.434-.788,2.492-1.347,2.114-1.118,5.051-2.631,8.309-4.274s6.22-3.1,8.376-4.139c1.078-.517,1.955-.928,2.566-1.2A4,4,0,0,1,401.862,327.067Z" fill="#eb996e"/>
            </g>
            <g id="Group_203" data-name="Group 203">
              <path id="Path_139" data-name="Path 139" d="M326.105,284.926a25.44,25.44,0,0,0-14.971,1.771,6.962,6.962,0,0,1,1.983-1.115,19.126,19.126,0,0,1,10.8-1.278A6.946,6.946,0,0,1,326.105,284.926Z" fill="#eb996e"/>
            </g>
          </g>
          <g id="Group_208" data-name="Group 208">
            <path id="Path_140" data-name="Path 140" d="M468.624,111.705a201.325,201.325,0,0,0-47.527,5.018c-3.61.823-7.427,1.882-9.869,4.665-2.584,2.945-3.04,7.137-3.379,11.04l-1.236,14.25a32.322,32.322,0,0,1-2.277,3.4c-3.76,4.911-8.549,9-11.968,14.159s-5.308,11.995-2.524,17.518c1.685,3.341,4.806,5.695,7.087,8.661,3.867,5.028,5.13,11.512,7.392,17.438s6.338,11.972,12.568,13.162c2.97.568,6.056-.062,9.048.376,4.472.654,8.227,3.583,11.786,6.368s7.406,5.636,11.9,6.083,9.649-2.6,9.743-7.116a10.572,10.572,0,0,1-10.872-.305c-2.622-1.724-4.311-4.524-6.563-6.709-5.524-5.359-14.431-7.058-18.274-13.726-3.041-5.275-1.834-11.878-.455-17.808,1.2-5.143,2.408-10.718.926-15.656a17.972,17.972,0,0,0,.184-2.4c.038-5.261-2.046-10.9.4-15.555,3.239-6.156,12.58-6.932,15.854-13.069,1.9-3.567,1.235-8.128,3.314-11.6,1.956-3.26,5.863-4.765,9.578-5.572s7.633-1.181,10.917-3.1S470.108,115.205,468.624,111.705Z" fill="#263238"/>
            <g id="Group_205" data-name="Group 205">
              <path id="Path_141" data-name="Path 141" d="M480.74,219a1.212,1.212,0,0,1-.152.246l-.49.7a13.947,13.947,0,0,1-2.3,2.328,15.565,15.565,0,0,1-4.563,2.449,15.819,15.819,0,0,1-6.806.789,14.287,14.287,0,0,1-7.656-3.137c-2.384-1.832-4.5-4.256-7.192-6.195A10.32,10.32,0,0,0,447,214.252a10.043,10.043,0,0,0-5.1.925,25.648,25.648,0,0,1-5.3,1.827,9.313,9.313,0,0,1-5.695-1.013,28.579,28.579,0,0,1-4.806-3.189,38.291,38.291,0,0,1-4.222-3.668,13.208,13.208,0,0,1-3-4.525,9.258,9.258,0,0,1-.341-5.2,28.275,28.275,0,0,1,1.511-4.692c.578-1.476,1.077-2.924,1.521-4.34a58.851,58.851,0,0,0,2.5-19.971c-.063-1.412-.153-2.508-.228-3.249-.031-.347-.055-.625-.075-.845a1.275,1.275,0,0,1-.008-.29,1.13,1.13,0,0,1,.061.283c.033.218.074.495.126.84.109.739.232,1.834.326,3.25a56.169,56.169,0,0,1-.485,12,58.509,58.509,0,0,1-1.8,8.111c-.438,1.428-.934,2.9-1.507,4.379a28.175,28.175,0,0,0-1.467,4.62,8.78,8.78,0,0,0,.337,4.931,12.726,12.726,0,0,0,2.9,4.344,38.022,38.022,0,0,0,4.171,3.612,28.2,28.2,0,0,0,4.718,3.131,8.8,8.8,0,0,0,5.385.969,25.5,25.5,0,0,0,5.188-1.789,10.527,10.527,0,0,1,5.344-.945,10.771,10.771,0,0,1,4.8,2.026c2.747,2,4.847,4.432,7.181,6.245a13.937,13.937,0,0,0,7.429,3.112,16,16,0,0,0,11.206-3.033A17.994,17.994,0,0,0,480.74,219Z" fill="#263238"/>
            </g>
            <g id="Group_206" data-name="Group 206">
              <path id="Path_142" data-name="Path 142" d="M380.832,187.2a10.092,10.092,0,0,1-.8-1.1,11.289,11.289,0,0,1-1.415-3.643,14.913,14.913,0,0,1,.1-6.18,18.829,18.829,0,0,1,3.462-7.416,34.581,34.581,0,0,1,7.216-6.826c2.87-2.135,6.129-4.123,9.379-6.443a34.359,34.359,0,0,0,8.9-8.646,22.175,22.175,0,0,0,2.7-5.968c.645-2.141,1.085-4.381,1.6-6.638a35.116,35.116,0,0,1,2.023-6.584,14.847,14.847,0,0,1,3.929-5.433,16.644,16.644,0,0,1,5.672-3.122,25.976,25.976,0,0,1,6.079-1.2,69.254,69.254,0,0,1,11.4.361,53.265,53.265,0,0,0,9.861.128,20.974,20.974,0,0,0,7.728-2.3,15.44,15.44,0,0,0,4.735-3.82,11.65,11.65,0,0,0,1.915-3.347c.284-.839.389-1.3.416-1.292a9.736,9.736,0,0,1-.317,1.326,11.2,11.2,0,0,1-1.855,3.439,15.441,15.441,0,0,1-4.756,3.95,21.1,21.1,0,0,1-7.826,2.412,52.948,52.948,0,0,1-9.934-.063,69.662,69.662,0,0,0-11.321-.314,25.6,25.6,0,0,0-5.963,1.2,16.173,16.173,0,0,0-5.5,3.036,14.353,14.353,0,0,0-3.789,5.258,34.773,34.773,0,0,0-1.988,6.489c-.515,2.248-.958,4.5-1.614,6.671a22.645,22.645,0,0,1-2.768,6.1,34.681,34.681,0,0,1-9.047,8.757c-3.28,2.324-6.54,4.293-9.4,6.4a34.517,34.517,0,0,0-7.18,6.7,18.669,18.669,0,0,0-3.47,7.255,14.911,14.911,0,0,0-.183,6.078A12.493,12.493,0,0,0,380.832,187.2Z" fill="#455a64"/>
            </g>
            <g id="Group_207" data-name="Group 207">
              <path id="Path_143" data-name="Path 143" d="M383.76,192.448a22.09,22.09,0,0,1-3.074-2.945,14.045,14.045,0,0,1-2.67-4.235,6.968,6.968,0,0,1-.456-3.125,6.242,6.242,0,0,1,1.349-3.278c1.617-1.983,4.3-3.05,7.11-3.642,1.416-.3,2.886-.527,4.363-.889a12.633,12.633,0,0,0,4.262-1.772,10.37,10.37,0,0,0,3.1-3.675,33.562,33.562,0,0,0,1.917-4.769,34.028,34.028,0,0,1,2.038-5.008,10.623,10.623,0,0,1,3.755-4.151,18.577,18.577,0,0,1,5.207-2.032c1.768-.456,3.52-.828,5.169-1.388a16.734,16.734,0,0,0,7.943-5.849,60.805,60.805,0,0,0,4.927-7.705,43.421,43.421,0,0,1,4.49-6.66,17.107,17.107,0,0,1,5.135-4.188,13,13,0,0,1,4.791-1.445,9.088,9.088,0,0,1,3.152.258,6.227,6.227,0,0,1,1.041.364c-.009.028-.367-.105-1.065-.261a9.507,9.507,0,0,0-3.109-.159,13.013,13.013,0,0,0-4.674,1.5,16.957,16.957,0,0,0-4.99,4.169,43.746,43.746,0,0,0-4.4,6.636,60.294,60.294,0,0,1-4.926,7.789,20.755,20.755,0,0,1-3.528,3.567,15.125,15.125,0,0,1-4.625,2.467c-1.688.575-3.451.951-5.2,1.4a18.157,18.157,0,0,0-5.061,1.972,10.113,10.113,0,0,0-3.575,3.957,33.731,33.731,0,0,0-2.012,4.928,33.736,33.736,0,0,1-1.96,4.836,10.85,10.85,0,0,1-3.265,3.836,13.063,13.063,0,0,1-4.427,1.822c-1.505.361-2.981.581-4.383.867-2.77.561-5.372,1.593-6.912,3.451a5.908,5.908,0,0,0-1.3,3.08,6.683,6.683,0,0,0,.4,2.992,14.138,14.138,0,0,0,2.55,4.2c.878,1.043,1.631,1.794,2.144,2.3l.587.572A1.1,1.1,0,0,1,383.76,192.448Z" fill="#455a64"/>
            </g>
          </g>
        </g>
        <g id="Group_210" data-name="Group 210">
          <path id="Path_144" data-name="Path 144" d="M506.857,127.85a3.165,3.165,0,0,1-.515.774c-.36.476-.9,1.151-1.579,1.97-1.365,1.637-3.325,3.84-5.62,6.148-1.145,1.114-2.214,2.375-3.684,2.838a3.217,3.217,0,0,1-2.111-.023,2.673,2.673,0,0,1-1.357-1.244,4.094,4.094,0,0,1-.375-2.543,2.39,2.39,0,0,1,.237-.9,4.923,4.923,0,0,1-.035.923,4.191,4.191,0,0,0,.493,2.342,2.314,2.314,0,0,0,1.191,1.023,2.808,2.808,0,0,0,1.811-.03c1.273-.414,2.309-1.616,3.46-2.748,2.286-2.3,4.28-4.452,5.712-6.023A26.912,26.912,0,0,1,506.857,127.85Z" fill="#eb996e"/>
        </g>
        <g id="Group_211" data-name="Group 211">
          <path id="Path_145" data-name="Path 145" d="M514.5,127.854a3.621,3.621,0,0,1-.6.78c-.412.479-1.02,1.159-1.78,1.993l-2.689,2.91-1.6,1.706a13.486,13.486,0,0,1-1.878,1.734,4.757,4.757,0,0,1-2.437.966,2.518,2.518,0,0,1-2.27-.99,1.924,1.924,0,0,1-.371-1.161,2.261,2.261,0,0,1,.341-1.073c.368-.6.748-1.058,1.077-1.523.668-.909,1.216-1.639,1.6-2.137a3.6,3.6,0,0,1,.646-.743,3.581,3.581,0,0,1-.481.859c-.337.534-.839,1.3-1.468,2.233-.3.468-.689.98-1,1.522a1.5,1.5,0,0,0,.042,1.741,2.03,2.03,0,0,0,1.848.762,4.309,4.309,0,0,0,2.166-.879,13.533,13.533,0,0,0,1.812-1.663l1.623-1.685,2.77-2.833c.794-.8,1.443-1.443,1.9-1.879A3.605,3.605,0,0,1,514.5,127.854Z" fill="#eb996e"/>
        </g>
      </g>
    </g>
    <g id="Plants">
      <g id="Group_214" data-name="Group 214">
        <path id="Path_146" data-name="Path 146" d="M618.911,434a12.669,12.669,0,0,1,20.585-3.565,16.423,16.423,0,0,1-9.2,7.073A9.992,9.992,0,0,1,618.911,434" fill="#37a2d0"/>
        <g id="Group_213" data-name="Group 213">
          <path id="Path_147" data-name="Path 147" d="M611.806,435.64a12.661,12.661,0,0,1,2.874-.9c1.807-.441,4.325-.936,7.119-1.4s5.335-.806,7.178-1.023a16.145,16.145,0,0,1,3-.231,18.216,18.216,0,0,1-2.946.6l-7.145,1.172c-2.789.46-5.309.9-7.126,1.243A27.026,27.026,0,0,1,611.806,435.64Z" fill="#263238"/>
        </g>
      </g>
      <g id="Group_218" data-name="Group 218">
        <path id="Path_148" data-name="Path 148" d="M261.482,370.691a16.656,16.656,0,0,1-2.984,27.684c-3.671-9.407-5.082-19.534,2.984-27.684" fill="#37a2d0"/>
        <g id="Group_216" data-name="Group 216">
          <path id="Path_149" data-name="Path 149" d="M275.392,377.907a21.554,21.554,0,0,0,31.149,18.114c-6.993-11.04-16.469-20.275-31.149-18.114" fill="#37a2d0"/>
          <g id="Group_215" data-name="Group 215">
            <path id="Path_150" data-name="Path 150" d="M243.523,343.131a3.341,3.341,0,0,1,.464.5l1.248,1.491c1.068,1.307,2.615,3.2,4.573,5.492,3.9,4.6,9.413,10.86,15.9,17.39,3.253,3.256,6.441,6.266,9.409,8.928,2.99,2.636,5.755,4.926,8.153,6.751a61.669,61.669,0,0,0,5.891,4.011c1.447.859,2.314,1.215,2.288,1.272a3.289,3.289,0,0,1-.633-.244,15.584,15.584,0,0,1-1.754-.851,52.934,52.934,0,0,1-6.012-3.893c-2.436-1.794-5.235-4.062-8.251-6.686-2.993-2.65-6.2-5.657-9.46-8.92-6.5-6.545-11.979-12.855-15.812-17.523-1.924-2.328-3.429-4.254-4.449-5.6l-1.172-1.552A3.423,3.423,0,0,1,243.523,343.131Z" fill="#263238"/>
          </g>
        </g>
        <g id="Group_217" data-name="Group 217">
          <path id="Path_151" data-name="Path 151" d="M260.7,384.915c-.087-.021.246-1.408.531-3.68A38.893,38.893,0,0,0,259.4,363.62c-.748-2.165-1.36-3.452-1.278-3.491a3.736,3.736,0,0,1,.511.865,24.4,24.4,0,0,1,1.113,2.5,34.361,34.361,0,0,1,1.855,17.794,24.385,24.385,0,0,1-.574,2.676A3.7,3.7,0,0,1,260.7,384.915Z" fill="#263238"/>
        </g>
      </g>
      <g id="Group_220" data-name="Group 220">
        <path id="Path_152" data-name="Path 152" d="M702.021,182.539a12.668,12.668,0,0,1,6.624-19.813,16.426,16.426,0,0,1,1.861,11.459,9.992,9.992,0,0,1-8.485,8.354" fill="#37a2d0"/>
        <g id="Group_219" data-name="Group 219">
          <path id="Path_153" data-name="Path 153" d="M700.095,189.573a12.67,12.67,0,0,1,.576-2.955c.468-1.8,1.227-4.252,2.146-6.93s1.822-5.079,2.5-6.8a16.219,16.219,0,0,1,1.219-2.749,18.309,18.309,0,0,1-.873,2.876c-.657,1.906-1.464,4.252-2.357,6.846-.918,2.673-1.729,5.1-2.285,6.863A26.716,26.716,0,0,1,700.095,189.573Z" fill="#263238"/>
        </g>
      </g>
      <g id="Group_227" data-name="Group 227">
        <g id="Group_223" data-name="Group 223">
          <path id="Path_154" data-name="Path 154" d="M657.948,256.942A24.5,24.5,0,0,1,684.157,226.2c1.388,7.564-.957,15.324-4.949,21.9-4.706,7.749-14.067,11.031-21.26,8.849" fill="#37a2d0"/>
          <g id="Group_221" data-name="Group 221">
            <path id="Path_155" data-name="Path 155" d="M628.413,286.537a3.38,3.38,0,0,1,.425-.536l1.295-1.47c1.146-1.256,2.823-3.057,4.92-5.256,4.193-4.4,10.055-10.413,16.572-17.01s12.459-12.534,16.778-16.81l5.137-5.041,1.417-1.351a3.319,3.319,0,0,1,.519-.446,3.427,3.427,0,0,1-.445.52l-1.347,1.42-5.02,5.158L652,262.631l-16.678,16.9-5.038,5.139-1.365,1.4A3.372,3.372,0,0,1,628.413,286.537Z" fill="#263238"/>
          </g>
          <g id="Group_222" data-name="Group 222" opacity="0.3">
            <path id="Path_156" data-name="Path 156" d="M657.948,256.942A24.5,24.5,0,0,1,684.157,226.2c1.388,7.564-.957,15.324-4.949,21.9-4.706,7.749-14.067,11.031-21.26,8.849"/>
          </g>
        </g>
        <g id="Group_226" data-name="Group 226">
          <path id="Path_157" data-name="Path 157" d="M644.288,259.912a15.038,15.038,0,0,1-3.129-24.6c4.007,2.495,6.561,6.766,7.9,11.294,1.573,5.337-.8,10.943-4.767,13.307" fill="#37a2d0"/>
          <g id="Group_224" data-name="Group 224" opacity="0.3">
            <path id="Path_158" data-name="Path 158" d="M644.288,259.912a15.038,15.038,0,0,1-3.129-24.6c4.007,2.495,6.561,6.766,7.9,11.294,1.573,5.337-.8,10.943-4.767,13.307"/>
          </g>
          <g id="Group_225" data-name="Group 225">
            <path id="Path_159" data-name="Path 159" d="M645.855,268.426a3.366,3.366,0,0,1-.307-.911c-.166-.6-.36-1.468-.568-2.552-.417-2.166-.864-5.179-1.261-8.516s-.676-6.368-.845-8.564a22.739,22.739,0,0,1-.148-3.564,25.769,25.769,0,0,1,.515,3.528c.271,2.326.615,5.276.995,8.539.4,3.331.784,6.343,1.107,8.516S645.931,268.406,645.855,268.426Z" fill="#263238"/>
          </g>
        </g>
      </g>
      <g id="Group_230" data-name="Group 230">
        <path id="Path_160" data-name="Path 160" d="M457.039,375.814a23.667,23.667,0,0,1,38.925-7.086c-11.34,8.792-24.571,14.794-38.925,7.086" fill="#37a2d0"/>
        <g id="Group_228" data-name="Group 228" opacity="0.3">
          <path id="Path_161" data-name="Path 161" d="M457.039,375.814a23.667,23.667,0,0,1,38.925-7.086c-11.34,8.792-24.571,14.794-38.925,7.086"/>
        </g>
        <g id="Group_229" data-name="Group 229">
          <path id="Path_162" data-name="Path 162" d="M450.633,379.327a4.8,4.8,0,0,1,.9-.7c.6-.428,1.491-1,2.623-1.661a49.839,49.839,0,0,1,19.352-6.383c1.3-.142,2.363-.215,3.1-.225a4.761,4.761,0,0,1,1.14.027c.005.088-1.61.189-4.189.563a57.809,57.809,0,0,0-19.22,6.339C452.04,378.521,450.682,379.4,450.633,379.327Z" fill="#263238"/>
        </g>
      </g>
      <g id="Group_233" data-name="Group 233">
        <path id="Path_163" data-name="Path 163" d="M193.432,245.511a18.274,18.274,0,0,1,25.995,16.046c-11.049-.815-21.741-4.207-25.995-16.046" fill="#37a2d0"/>
        <g id="Group_231" data-name="Group 231" opacity="0.3">
          <path id="Path_164" data-name="Path 164" d="M193.432,245.511a18.274,18.274,0,0,1,25.995,16.046c-11.049-.815-21.741-4.207-25.995-16.046"/>
        </g>
        <g id="Group_232" data-name="Group 232">
          <path id="Path_165" data-name="Path 165" d="M187.942,244.217a2.929,2.929,0,0,1,.882.041c.564.055,1.375.183,2.369.383a37.791,37.791,0,0,1,14.415,6.343c.819.6,1.462,1.108,1.883,1.487s.649.6.626.623c-.053.065-1.041-.7-2.718-1.807A45.716,45.716,0,0,0,191.111,245C189.161,244.512,187.93,244.3,187.942,244.217Z" fill="#263238"/>
        </g>
      </g>
      <g id="Group_235" data-name="Group 235">
        <path id="Path_166" data-name="Path 166" d="M551.762,363.559a16.349,16.349,0,0,1,20.878-17.638c-3.767,9.169-9.628,17.316-20.878,17.638" fill="#37a2d0"/>
        <g id="Group_234" data-name="Group 234">
          <path id="Path_167" data-name="Path 167" d="M549.134,367.867a11.8,11.8,0,0,1,1.249-2.656,33.465,33.465,0,0,1,9.409-10.5,11.749,11.749,0,0,1,2.505-1.531,26.855,26.855,0,0,1-2.282,1.824A41.431,41.431,0,0,0,550.7,365.4,26.89,26.89,0,0,1,549.134,367.867Z" fill="#263238"/>
        </g>
      </g>
      <g id="Group_238" data-name="Group 238">
        <path id="Path_168" data-name="Path 168" d="M630.452,311.614a16.349,16.349,0,0,1,17.188-21.25c-1.975,9.713-6.2,18.818-17.188,21.25" fill="#37a2d0"/>
        <g id="Group_236" data-name="Group 236" opacity="0.3">
          <path id="Path_169" data-name="Path 169" d="M630.452,311.614a16.349,16.349,0,0,1,17.188-21.25c-1.975,9.713-6.2,18.818-17.188,21.25"/>
        </g>
        <g id="Group_237" data-name="Group 237">
          <path id="Path_170" data-name="Path 170" d="M628.681,316.339a11.85,11.85,0,0,1,.727-2.843,33.442,33.442,0,0,1,7.268-12.08,11.736,11.736,0,0,1,2.171-1.974,26.614,26.614,0,0,1-1.9,2.22,41.419,41.419,0,0,0-7.2,11.961A26.353,26.353,0,0,1,628.681,316.339Z" fill="#263238"/>
        </g>
      </g>
      <g id="Group_240" data-name="Group 240">
        <path id="Path_171" data-name="Path 171" d="M37.282,240.1a16.349,16.349,0,0,1,25.554-9.693C56.235,237.8,48,243.538,37.282,240.1" fill="#37a2d0"/>
        <g id="Group_239" data-name="Group 239">
          <path id="Path_172" data-name="Path 172" d="M33.371,243.291a11.792,11.792,0,0,1,2.061-2.09A33.436,33.436,0,0,1,47.8,234.429a11.684,11.684,0,0,1,2.871-.611,26.934,26.934,0,0,1-2.758.961,41.429,41.429,0,0,0-12.242,6.706A26.721,26.721,0,0,1,33.371,243.291Z" fill="#263238"/>
        </g>
      </g>
    </g>
    <g id="Speech_Bubble" data-name="Speech Bubble">
      <g id="Group_247" data-name="Group 247">
        <g id="Group_244" data-name="Group 244">
          <g id="Group_243" data-name="Group 243">
            <g id="Group_242" data-name="Group 242">
              <path id="Path_173" data-name="Path 173" d="M494.374,109.6l8.038-14.486a38.608,38.608,0,1,1,9.345,10.2l.013.017Z" fill="#fff"/>
              <g id="Group_241" data-name="Group 241">
                <path id="Path_174" data-name="Path 174" d="M494.374,109.6l17.365-4.4-.071.206-.014-.017-.61-.776.791.593a39.48,39.48,0,0,0,7.944,4.624,38.508,38.508,0,0,0,10.522,2.846,34.41,34.41,0,0,0,6.052.226c1.039-.073,2.1-.111,3.163-.214l3.219-.528a38.537,38.537,0,0,0,23.646-15.576A38.021,38.021,0,0,0,572.657,81.8a38.875,38.875,0,0,0-.625-16.931A37.6,37.6,0,0,0,563.72,49.3l-1.571-1.7c-.516-.57-1.13-1.038-1.689-1.56-.584-.493-1.112-1.054-1.739-1.489l-1.84-1.349a16.05,16.05,0,0,0-1.9-1.233l-1.942-1.155-2.03-.962a17.637,17.637,0,0,0-2.049-.889A38.9,38.9,0,0,0,531.87,36.5a37.615,37.615,0,0,0-15.631,4.76A38.751,38.751,0,0,0,498.3,63.665,41.419,41.419,0,0,0,496.721,76.1a38.324,38.324,0,0,0,5.8,18.952l.04.063-.036.064c-5.19,9.19-7.711,13.655-8.147,14.426.424-.777,2.878-5.28,7.928-14.547l0,.127a38.4,38.4,0,0,1-5.945-19.071,41.693,41.693,0,0,1,1.553-12.561A39.14,39.14,0,0,1,516,40.842,38.063,38.063,0,0,1,531.829,36a39.353,39.353,0,0,1,17.316,2.491,17.953,17.953,0,0,1,2.078.9l2.058.975,1.968,1.17a16.167,16.167,0,0,1,1.929,1.249l1.865,1.367c.636.44,1.171,1.008,1.763,1.508.567.529,1.189,1,1.712,1.582l1.592,1.718a38.063,38.063,0,0,1,8.421,15.785A39.332,39.332,0,0,1,573.15,81.9a38.455,38.455,0,0,1-6.377,14.964,38.913,38.913,0,0,1-23.956,15.7l-3.254.523c-1.078.1-2.147.137-3.2.206a34.83,34.83,0,0,1-6.11-.251,38.676,38.676,0,0,1-10.6-2.921,39.451,39.451,0,0,1-7.975-4.707l.181-.183.013.017.124.16-.2.046Z" fill="#263238"/>
              </g>
            </g>
          </g>
        </g>
        <g id="Group_246" data-name="Group 246">
          <g id="Group_245" data-name="Group 245">
            <path id="Path_175" data-name="Path 175" d="M524.362,68.012l5.013-.049a4.262,4.262,0,0,1,4.334-4.327,4.057,4.057,0,0,1,3.954,2.552,4.491,4.491,0,0,1-.318,4.064c-.837,1.41-2.688,2.7-6.073,2.14L531.38,83.7l4.958-.048-.063-6.622a9.681,9.681,0,0,0,6.862-9.527c-.07-7.332-6.662-8.972-9.476-8.945C531.509,58.576,524.182,59.167,524.362,68.012Z" fill="#37a2d0"/>
            <rect id="Rectangle_1" data-name="Rectangle 1" width="5.032" height="4.7" transform="translate(531.389 86.026) rotate(-0.55)" fill="#37a2d0"/>
          </g>
        </g>
      </g>
    </g>
  </g>
</svg>
