<svg width="20" height="20" viewBox="0 0 20 20" fill="none" xmlns="http://www.w3.org/2000/svg">
<path fill-rule="evenodd" clip-rule="evenodd" d="M12.7072 14.7069C12.8947 14.5194 13 14.2651 13 13.9999C13 13.7348 12.8947 13.4804 12.7072 13.2929L9.41421 9.99992L12.7072 6.70692C12.8894 6.51832 12.9902 6.26571 12.9879 6.00352C12.9856 5.74132 12.8804 5.49051 12.695 5.3051C12.5096 5.11969 12.2588 5.01452 11.9966 5.01224C11.7344 5.00997 11.4818 5.11076 11.2932 5.29292L7.29321 9.29292C7.10574 9.48045 7.00043 9.73475 7.00043 9.99992C7.00043 10.2651 7.10574 10.5194 7.29321 10.7069L11.2932 14.7069C11.4807 14.8944 11.735 14.9997 12.0002 14.9997C12.2654 14.9997 12.5197 14.8944 12.7072 14.7069Z" fill="white"/>
</svg>
