<svg width="11" height="11" viewBox="0 0 11 11" fill="none" xmlns="http://www.w3.org/2000/svg">
<path fill-rule="evenodd" clip-rule="evenodd" d="M9.18883 2.91103C9.29194 3.01417 9.34986 3.15404 9.34986 3.29988C9.34986 3.44572 9.29194 3.58559 9.18883 3.68873L4.78883 8.08873C4.68569 8.19184 4.54582 8.24977 4.39998 8.24977C4.25414 8.24977 4.11427 8.19184 4.01113 8.08873L1.81113 5.88873C1.71094 5.785 1.65551 5.64607 1.65676 5.50186C1.65801 5.35765 1.71586 5.21971 1.81783 5.11773C1.9198 5.01576 2.05775 4.95792 2.20196 4.95666C2.34617 4.95541 2.4851 5.01085 2.58883 5.11103L4.39998 6.92218L8.41113 2.91103C8.51427 2.80792 8.65414 2.75 8.79998 2.75C8.94582 2.75 9.08569 2.80792 9.18883 2.91103Z" fill="#071D27"/>
</svg>
