<?xml version="1.0" standalone="no"?>
<!DOCTYPE svg PUBLIC "-//W3C//DTD SVG 20010904//EN"
 "http://www.w3.org/TR/2001/REC-SVG-20010904/DTD/svg10.dtd">
<svg version="1.0" xmlns="http://www.w3.org/2000/svg"
 width="1096.000000pt" height="1096.000000pt" viewBox="0 0 1096.000000 1096.000000"
 preserveAspectRatio="xMidYMid meet">
<metadata>
Created by potrace 1.14, written by Peter Selinger 2001-2017
</metadata>
<g transform="translate(0.000000,1096.000000) scale(0.100000,-0.100000)"
fill="#000000" stroke="none">
<path d="M5369 8936 c-2 -2 -22 -6 -44 -10 -101 -14 -183 -40 -285 -88 -183
-87 -360 -261 -455 -447 -27 -53 -63 -145 -70 -180 -3 -12 -7 -30 -10 -42 -2
-11 -6 -28 -9 -37 -9 -28 -19 -133 -19 -192 0 -262 104 -516 285 -700 63 -64
142 -130 156 -130 5 0 15 -7 22 -15 19 -23 190 -102 260 -120 111 -30 173 -38
281 -38 119 0 261 26 355 64 16 7 31 13 34 13 14 3 135 69 163 88 81 57 176
143 220 201 12 16 27 34 34 41 22 25 93 147 93 161 0 8 4 15 9 15 5 0 13 15
16 33 4 17 11 37 14 42 10 14 34 97 46 160 16 86 21 212 10 285 -3 19 -7 54
-10 78 -2 23 -7 48 -11 54 -4 6 -8 22 -10 35 -2 25 -56 158 -83 208 -24 44
-73 117 -91 137 -8 9 -31 35 -50 58 -33 40 -172 160 -184 160 -3 0 -15 8 -26
18 -11 9 -23 15 -27 14 -3 -2 -9 0 -12 5 -7 9 -76 44 -135 68 -36 14 -112 35
-181 51 -34 7 -280 16 -286 10z"/>
<path d="M5117 6434 c-1 -1 -76 -5 -167 -9 -91 -4 -185 -8 -210 -10 -132 -8
-225 -17 -232 -21 -4 -3 -8 0 -8 6 0 6 -5 8 -10 5 -14 -9 -42 -13 -135 -20
-44 -3 -93 -8 -110 -10 -30 -5 -70 -9 -180 -20 -33 -3 -67 -8 -75 -10 -8 -2
-40 -7 -70 -11 -69 -8 -97 -11 -135 -17 -16 -3 -50 -8 -75 -12 -98 -14 -196
-30 -240 -40 -14 -4 -41 -8 -60 -11 -32 -4 -298 -58 -345 -69 -24 -6 -73 -16
-100 -20 -11 -2 -45 -11 -77 -19 -31 -8 -67 -18 -80 -20 -12 -3 -59 -15 -103
-27 -44 -11 -87 -23 -95 -25 -19 -5 -67 -18 -160 -44 -41 -11 -79 -22 -85 -23
-27 -7 -132 -40 -151 -47 -11 -4 -95 -33 -185 -63 -193 -65 -391 -140 -549
-209 -25 -10 -54 -23 -65 -28 -65 -27 -96 -41 -146 -64 -31 -14 -61 -26 -67
-26 -6 0 -12 -3 -14 -7 -1 -5 -25 -18 -53 -31 -27 -13 -57 -27 -66 -32 -9 -5
-63 -33 -120 -63 -57 -30 -124 -67 -149 -81 -25 -14 -52 -29 -60 -33 -8 -3
-82 -49 -165 -100 -82 -52 -159 -100 -170 -106 -11 -7 -22 -15 -25 -18 -3 -3
-41 -30 -85 -60 -44 -29 -85 -58 -91 -64 -6 -5 -23 -19 -38 -30 -15 -11 -59
-44 -97 -74 l-68 -54 47 -59 c25 -33 55 -70 67 -82 11 -12 45 -53 76 -92 31
-38 65 -79 75 -91 11 -12 30 -36 44 -54 14 -18 30 -37 35 -43 11 -11 235 -282
265 -320 8 -10 22 -26 30 -35 12 -14 166 -204 177 -220 5 -7 45 17 79 47 18
15 58 45 89 67 31 22 62 45 69 50 6 6 19 15 28 20 8 6 28 19 44 29 99 66 258
164 288 177 12 5 37 19 56 31 38 23 297 153 371 187 110 49 235 103 244 105 6
2 24 8 40 15 17 6 53 20 80 30 28 11 59 23 70 27 11 4 22 8 25 8 9 3 105 38
125 47 26 11 416 132 465 144 8 2 44 11 80 20 36 9 72 18 80 20 8 2 15 4 15 5
0 1 7 3 15 5 8 2 45 10 81 19 37 8 78 18 90 20 13 3 42 10 64 15 22 5 51 12
65 14 14 3 36 8 50 11 14 4 39 9 55 11 17 2 31 4 33 6 3 2 12 4 65 13 27 4 59
10 70 12 47 10 305 53 352 58 28 4 61 8 75 11 14 2 52 7 85 11 33 4 71 8 85
10 14 1 45 5 69 8 25 3 67 8 95 11 51 6 82 9 231 21 598 48 1429 35 1945 -31
19 -2 56 -7 83 -10 60 -6 136 -16 162 -20 40 -6 121 -17 150 -20 17 -2 30 -4
30 -5 0 -1 9 -3 20 -4 11 -1 38 -6 60 -10 22 -5 54 -10 70 -13 48 -7 58 -9
100 -17 49 -9 332 -66 360 -73 11 -2 31 -6 45 -9 14 -2 32 -7 40 -10 8 -3 26
-8 40 -10 14 -3 43 -10 65 -16 22 -5 42 -10 45 -10 3 -1 43 -12 90 -25 47 -13
93 -26 103 -28 36 -8 362 -108 372 -114 6 -3 15 -7 20 -8 31 -7 43 -11 70 -22
17 -7 57 -22 90 -33 73 -26 351 -137 420 -169 28 -13 52 -24 55 -24 14 -2 290
-142 374 -190 54 -30 102 -55 107 -55 5 0 9 -4 9 -10 0 -5 5 -10 11 -10 9 0
66 -35 194 -119 50 -32 216 -152 231 -166 6 -5 23 -19 38 -30 15 -11 37 -28
48 -37 26 -23 34 -22 50 0 7 11 36 45 63 77 28 32 68 80 90 105 22 26 60 71
85 101 25 29 53 61 63 71 9 10 17 20 17 23 0 3 8 13 18 23 29 31 126 145 197
231 11 14 38 45 60 70 22 25 43 50 48 56 4 5 17 22 30 36 12 14 42 50 67 79
25 30 53 63 64 73 18 19 17 20 -20 51 -21 17 -47 39 -56 49 -10 9 -20 17 -23
17 -4 0 -33 22 -59 45 -6 6 -27 22 -46 35 -19 13 -37 27 -40 30 -16 21 -490
330 -505 330 -2 0 -43 23 -92 51 -109 63 -502 259 -519 259 -7 0 -19 6 -26 13
-7 6 -19 13 -25 14 -6 1 -36 14 -66 28 -31 14 -58 25 -61 25 -4 0 -25 9 -49
19 -44 20 -182 74 -279 110 -32 11 -82 30 -110 41 -29 10 -98 33 -153 51 -55
17 -109 35 -120 40 -11 4 -60 20 -110 34 -49 15 -102 30 -118 35 -15 5 -29 9
-32 10 -3 0 -10 2 -17 5 -16 5 -125 34 -153 40 -11 3 -73 19 -138 35 -65 17
-130 33 -145 35 -15 3 -54 11 -87 19 -33 8 -71 17 -85 20 -14 3 -36 7 -50 10
-14 3 -36 8 -50 11 -14 3 -36 7 -50 10 -14 3 -47 9 -75 15 -27 6 -63 12 -80
15 -16 2 -40 6 -51 9 -23 5 -72 13 -131 21 -21 3 -60 10 -88 15 -27 5 -68 11
-90 14 -22 3 -50 8 -62 10 -12 3 -46 7 -75 11 -29 3 -67 7 -83 9 -17 3 -53 7
-80 10 -28 4 -68 8 -90 11 -84 10 -142 16 -200 21 -126 10 -172 14 -220 18
-27 3 -97 8 -155 11 -58 3 -150 8 -205 11 -97 6 -853 13 -858 8z"/>
<path d="M2297 4023 c-2 -1 -27 -5 -57 -8 -30 -4 -57 -8 -60 -10 -4 -2 -22 -7
-41 -10 -79 -14 -292 -108 -329 -145 -3 -3 -23 -18 -45 -34 -145 -106 -272
-285 -338 -476 -25 -73 -30 -92 -45 -195 -8 -49 -7 -181 1 -260 12 -120 81
-300 159 -416 122 -180 240 -275 488 -389 15 -7 72 -21 87 -22 5 0 16 -4 26
-9 40 -22 299 -33 397 -16 57 9 171 41 199 56 11 7 21 9 21 6 0 -4 14 3 30 15
17 12 30 19 30 15 0 -6 25 9 123 73 92 61 256 226 257 260 0 6 4 12 9 12 14 0
87 146 115 230 43 130 54 205 50 349 -5 223 -74 417 -208 589 -6 8 -42 47 -81
86 -151 156 -317 243 -550 287 -44 9 -233 18 -238 12z"/>
<path d="M8528 4025 c-2 -2 -28 -5 -58 -8 -83 -9 -119 -17 -185 -39 -33 -11
-64 -22 -70 -23 -39 -11 -55 -18 -55 -24 0 -4 -6 -8 -12 -8 -42 -1 -241 -150
-308 -230 -25 -30 -52 -62 -61 -71 -24 -26 -75 -112 -99 -167 -48 -109 -64
-153 -74 -205 -3 -14 -9 -47 -14 -75 -11 -52 -8 -293 3 -335 4 -14 9 -36 12
-50 2 -14 7 -32 10 -40 3 -8 7 -21 9 -29 10 -51 79 -192 120 -248 13 -17 24
-34 24 -37 0 -25 156 -176 245 -237 172 -118 352 -175 556 -177 94 -1 280 25
309 43 5 3 19 8 30 10 35 7 172 75 223 111 26 19 50 34 54 34 3 0 47 42 98 93
141 141 216 273 271 472 32 117 36 310 8 435 -10 48 -36 138 -43 155 -6 11
-19 42 -30 68 -31 74 -122 206 -188 272 -70 71 -123 118 -123 109 0 -4 -8 2
-17 12 -47 51 -264 147 -382 169 -70 13 -245 27 -253 20z"/>
</g>
</svg>
