<svg width="13" height="9" viewBox="0 0 13 9" fill="none" xmlns="http://www.w3.org/2000/svg">
<path fill-rule="evenodd" clip-rule="evenodd" d="M12.2008 0.498869C12.3602 0.658267 12.4497 0.874429 12.4497 1.09982C12.4497 1.32521 12.3602 1.54137 12.2008 1.70077L5.40081 8.50077C5.24141 8.66012 5.02525 8.74964 4.79986 8.74964C4.57447 8.74964 4.35831 8.66012 4.19891 8.50077L0.798908 5.10077C0.644073 4.94046 0.558398 4.72574 0.560335 4.50288C0.562272 4.28001 0.651665 4.06682 0.809262 3.90922C0.966859 3.75163 1.18005 3.66223 1.40292 3.6603C1.62578 3.65836 1.8405 3.74403 2.00081 3.89887L4.79986 6.69792L10.9989 0.498869C11.1583 0.339518 11.3745 0.25 11.5999 0.25C11.8252 0.25 12.0414 0.339518 12.2008 0.498869Z" fill="white"/>
</svg>
