<?xml version="1.0" encoding="utf-8"?>
<!-- Generator: Adobe Illustrator 24.2.3, SVG Export Plug-In . SVG Version: 6.00 Build 0)  -->
<svg version="1.1" id="Layer_1" xmlns="http://www.w3.org/2000/svg" xmlns:xlink="http://www.w3.org/1999/xlink" x="0px" y="0px"
	 viewBox="0 0 841.89 270.16" style="enable-background:new 0 0 841.89 270.16;" xml:space="preserve">
<style type="text/css">
	.st0{fill:#39A3D1;}
</style>
<g>
	<g>
		<polygon class="st0" points="364.51,119.92 342.98,119.92 315.7,155.79 315.7,76.11 296.36,76.11 296.36,193.06 315.7,193.06 
			315.7,157.35 345.64,193.06 369.5,193.06 335.19,154.54 		"/>
		<path class="st0" d="M417.84,118.52c-8.42,0.47-16.84,4.83-21.83,14.5h-0.31v-13.1h-20.74v73.13h21.52v-41.32
			c2.81-10.14,10.29-14.66,18.87-15.28c2.03,0,3.9,0.16,5.77,0.62v-18.4C420.17,118.52,418.93,118.36,417.84,118.52z"/>
		<path class="st0" d="M478.96,164.99c-1.72,9.2-9.05,13.25-15.44,13.25c-9.04,0-14.03-4.52-13.88-17v-41.32h-19.18v48.03
			c0,16.84,9.2,26.66,25.88,26.66c9.36,0,17.47-3.9,22.61-11.54v9.98h19.18v-73.13h-19.18V164.99z"/>
		<polygon class="st0" points="509.68,135.21 538.22,135.21 506.09,191.65 506.09,193.06 565.04,193.06 565.04,177.77 
			533.85,177.77 565.66,121.48 565.66,119.92 509.68,119.92 		"/>
		<path class="st0" d="M605.73,118.36c-21.36,0-37.11,15.75-37.11,38.36c0,21.99,15.44,37.89,37.11,37.89
			c11.38,0,23.08-4.68,31.19-15.44l-11.23-9.36c-5.46,6.71-12.63,9.2-18.56,9.2c-10.76,0-18.87-6.86-19.96-18.55h54.11
			c0-1.25,0.16-2.5,0.16-3.59C641.45,133.18,626.32,118.36,605.73,118.36z M587.49,149.71c1.87-11.23,9.82-16.99,18.4-16.99
			c8.89,0,15.75,5.77,17.31,16.99H587.49z"/>
		<path class="st0" d="M719.88,156.88c0-23.7-15.13-38.52-35.71-38.52c-21.36,0-37.11,15.75-37.11,38.36
			c0,21.99,15.44,37.89,37.11,37.89c11.38,0,23.08-4.68,31.19-15.44l-11.23-9.36c-5.46,6.71-12.63,9.2-18.56,9.2
			c-10.76,0-18.87-6.86-19.96-18.55h54.11C719.72,159.22,719.88,157.97,719.88,156.88z M665.93,149.71
			c1.87-11.23,9.82-16.99,18.4-16.99c8.89,0,15.75,5.77,17.31,16.99H665.93z"/>
	</g>
	<g>
		<path class="st0" d="M159.51,169.58c-6.9,0-12.52,5.62-12.52,12.52s5.62,12.52,12.52,12.52c6.9,0,12.52-5.62,12.52-12.52
			S166.42,169.58,159.51,169.58z"/>
		<path class="st0" d="M237.03,169.58c-6.9,0-12.52,5.62-12.52,12.52s5.62,12.52,12.52,12.52s12.52-5.62,12.52-12.52
			S243.93,169.58,237.03,169.58z"/>
		<path class="st0" d="M198.27,108.18c-6.9,0-12.52,5.62-12.52,12.52s5.62,12.52,12.52,12.52c6.9,0,12.52-5.62,12.52-12.52
			S205.18,108.18,198.27,108.18z"/>
		<path class="st0" d="M197.97,139.44c-27.29,0-52.77,7.58-68.14,20.26l10.33,12.52c12.37-10.21,34.53-16.55,57.81-16.55
			c23.64,0,45.96,6.48,58.26,16.92l10.5-12.38C251.39,147.21,225.69,139.44,197.97,139.44z"/>
	</g>
</g>
</svg>
