<svg width="44" height="44" viewBox="0 0 44 44" fill="none" xmlns="http://www.w3.org/2000/svg">
<circle cx="22" cy="22" r="22" fill="#F2F4F5"/>
<path fill-rule="evenodd" clip-rule="evenodd" d="M15.1516 15.1515C15.3767 14.9265 15.6818 14.8002 16 14.8002C16.3182 14.8002 16.6234 14.9265 16.8484 15.1515L22 20.3031L27.1516 15.1515C27.2623 15.0369 27.3947 14.9455 27.5412 14.8826C27.6876 14.8197 27.845 14.7866 28.0044 14.7852C28.1637 14.7838 28.3217 14.8142 28.4692 14.8745C28.6167 14.9349 28.7506 15.024 28.8633 15.1366C28.976 15.2493 29.0651 15.3833 29.1254 15.5308C29.1858 15.6782 29.2161 15.8362 29.2147 15.9956C29.2134 16.1549 29.1802 16.3124 29.1174 16.4588C29.0545 16.6052 28.963 16.7376 28.8484 16.8483L23.6968 21.9999L28.8484 27.1515C29.067 27.3778 29.188 27.6809 29.1852 27.9956C29.1825 28.3102 29.0563 28.6112 28.8338 28.8337C28.6113 29.0562 28.3104 29.1824 27.9957 29.1851C27.6811 29.1878 27.378 29.0669 27.1516 28.8483L22 23.6967L16.8484 28.8483C16.6221 29.0669 16.319 29.1878 16.0044 29.1851C15.6897 29.1824 15.3887 29.0562 15.1663 28.8337C14.9438 28.6112 14.8176 28.3102 14.8148 27.9956C14.8121 27.6809 14.933 27.3778 15.1516 27.1515L20.3032 21.9999L15.1516 16.8483C14.9267 16.6233 14.8003 16.3181 14.8003 15.9999C14.8003 15.6817 14.9267 15.3765 15.1516 15.1515V15.1515Z" fill="#ACB5BA"/>
</svg>
