<svg width="20" height="20" viewBox="0 0 20 20" fill="none" xmlns="http://www.w3.org/2000/svg">
<path d="M15.8327 16.6673H4.16602V17.5007C4.16602 17.7217 4.07822 17.9336 3.92194 18.0899C3.76566 18.2462 3.5537 18.334 3.33268 18.334H2.49935C2.27834 18.334 2.06637 18.2462 1.91009 18.0899C1.75381 17.9336 1.66602 17.7217 1.66602 17.5007V10.0007L3.76018 4.41565C3.87929 4.0979 4.09256 3.82407 4.37148 3.63078C4.6504 3.43749 4.98167 3.33394 5.32102 3.33398H14.6777C15.017 3.33394 15.3483 3.43749 15.6272 3.63078C15.9061 3.82407 16.1194 4.0979 16.2385 4.41565L18.3327 10.0007V17.5007C18.3327 17.7217 18.2449 17.9336 18.0886 18.0899C17.9323 18.2462 17.7204 18.334 17.4993 18.334H16.666C16.445 18.334 16.233 18.2462 16.0768 18.0899C15.9205 17.9336 15.8327 17.7217 15.8327 17.5007V16.6673ZM3.44602 10.0007H16.5527L14.6777 5.00065H5.32102L3.44602 10.0007ZM5.41602 14.1673C5.74754 14.1673 6.06548 14.0356 6.2999 13.8012C6.53432 13.5668 6.66602 13.2488 6.66602 12.9173C6.66602 12.5858 6.53432 12.2679 6.2999 12.0334C6.06548 11.799 5.74754 11.6673 5.41602 11.6673C5.08449 11.6673 4.76655 11.799 4.53213 12.0334C4.29771 12.2679 4.16602 12.5858 4.16602 12.9173C4.16602 13.2488 4.29771 13.5668 4.53213 13.8012C4.76655 14.0356 5.08449 14.1673 5.41602 14.1673V14.1673ZM14.5827 14.1673C14.9142 14.1673 15.2321 14.0356 15.4666 13.8012C15.701 13.5668 15.8327 13.2488 15.8327 12.9173C15.8327 12.5858 15.701 12.2679 15.4666 12.0334C15.2321 11.799 14.9142 11.6673 14.5827 11.6673C14.2512 11.6673 13.9332 11.799 13.6988 12.0334C13.4644 12.2679 13.3327 12.5858 13.3327 12.9173C13.3327 13.2488 13.4644 13.5668 13.6988 13.8012C13.9332 14.0356 14.2512 14.1673 14.5827 14.1673V14.1673Z" fill="#ACB5BA"/>
</svg>
